<svg fill="none" height="258" viewBox="0 0 1355 258" width="1355" xmlns="http://www.w3.org/2000/svg" xmlns:xlink="http://www.w3.org/1999/xlink"><clipPath id="a"><path d="m0 0h1355v258h-1355z"/></clipPath><g clip-path="url(#a)"><path d="m0 0h1355v258h-1355z" fill="#fff"/><path d="m36.0729 109.559-5.9993-3.464v6.927zm-25.6286.6h20.2292v-1.2h-20.2292z" fill="#000"/><path d="m113.882 109.559-6-3.464v6.927zm-18.0002.6h12.6002v-1.2h-12.6002z" fill="#000"/><path d="m241.39 109.559-5.999-3.464v6.927zm-18.671.6h13.272v-1.2h-13.272z" fill="#000"/><path d="m536.905 84.7256-6-3.4637v6.9274zm-32.809.5999h27.409v-1.1998h-27.409z" fill="#000"/><path d="m444.204 45.9979-2.887 5h5.774zm.5 18.7316v-14.2316h-1v14.2316z" fill="#a8a8a8"/><path d="m444.204 180.233 2.887-5h-5.774zm-.5-19.249v14.749h1v-14.749z" fill="#a8a8a8"/><path d="m168.468 150.986 2.887-5h-5.774zm-.5-19.429v14.929h1v-14.929z" fill="#a8a8a8"/><path d="m592.156 62.7295 2.887-5h-5.774zm-.5-16.7315v12.2315h1v-12.2315z" fill="#a8a8a8"/><path d="m592.156 163.418-2.887 5h5.774zm.5 16.814v-12.314h-1v12.314z" fill="#a8a8a8"/><g fill="#000"><path d="m680.006 82.6104-5.999-3.4638v6.9275zm-34.6.5999h29.201v-1.1999h-29.201z"/><path d="m768.261 84.9932-5.999-3.4637v6.9274zm-22.263.5999h16.864v-1.1999h-16.864z"/><path d="m1066.58 84.9932-6-3.4637v6.9274zm-23.99.5999h18.59v-1.1999h-18.59z"/><path d="m872.25 84.9932-6-3.4637v6.9274zm-21.998.5999h16.598v-1.1999h-16.598z"/><path d="m1168.57 84.9932-6-3.4638v6.9275zm-22 .5999h16.6v-1.1999h-16.6z"/><path d="m830.189 140.987-5.999-3.463v6.927zm-19.998.6h14.599v-1.2h-14.599z"/><path d="m680.006 140.987-5.999-3.463v6.927zm-34.6.6h29.201v-1.2h-29.201z"/><path d="m243.391 88.4141-5.45-4.2782 6.43-2.5804zm-224.2215-19.2606.5693.1895zm216.1285-.9048-.557.2234zm5.513 15.3475-1.349-3.3609 1.113-.447 1.349 3.3609zm-2.698-6.7218-1.349-3.3609 1.114-.447 1.349 3.3609zm-2.698-6.7218-.674-1.6805 1.114-.4469.674 1.6804zm-.674-1.6805c-.287-.716-.625-1.4017-1.007-2.0536l1.036-.6067c.412.7029.775 1.4419 1.085 2.2134zm-3.871-5.6027c-1.125-1.0339-2.399-1.8954-3.778-2.555l.518-1.0825c1.486.7108 2.859 1.6394 4.072 2.7538zm-8.139-3.8912c-.747-.1117-1.509-.1692-2.28-.1692v-1.2c.831 0 1.652.062 2.458.1824zm-2.28-.1692h-2.023v-1.2h2.023zm-6.069 0h-4.046v-1.2h4.046zm-8.091 0h-4.046v-1.2h4.046zm-8.092 0h-4.045v-1.2h4.045zm-8.091 0h-4.046v-1.2h4.046zm-8.092 0h-4.045v-1.2h4.045zm-8.091 0h-4.046v-1.2h4.046zm-8.091 0h-4.046v-1.2h4.046zm-8.092 0h-4.045v-1.2h4.045zm-8.091 0h-4.046v-1.2h4.046zm-8.091 0h-4.046v-1.2h4.046zm-8.092 0h-4.046v-1.2h4.046zm-8.091 0h-4.046v-1.2h4.046zm-8.092 0h-4.045v-1.2h4.045zm-8.091 0h-4.046v-1.2h4.046zm-8.092 0h-4.0452v-1.2h4.0452zm-8.0909 0h-4.0457v-1.2h4.0457zm-8.0914 0h-4.0457v-1.2h4.0457zm-8.0914 0h-4.0457v-1.2h4.0457zm-8.0914 0h-4.0457v-1.2h4.0457zm-8.0914 0h-4.0457v-1.2h4.0457zm-8.0914 0h-4.0457v-1.2h4.0457zm-8.0914 0h-4.0457v-1.2h4.0457zm-8.0914 0h-2.0228v-1.2h2.0228zm-2.0228 0c-.8117 0-1.612.0636-2.3955.1867l-.1863-1.1855c.8448-.1327 1.7074-.2012 2.5818-.2012zm-6.9534 1.6589c-1.4328.7257-2.7447 1.6716-3.8858 2.8018l-.8445-.8526c1.23-1.2182 2.6438-2.2376 4.1882-3.0197zm-6.7225 6.6612c-.3643.7045-.6774 1.4438-.9338 2.2139l-1.1386-.3791c.2763-.8296.6138-1.6265 1.0065-2.386zm-.9338 2.2139-.5953 1.7881-1.1386-.3791.5953-1.7881zm-1.786 5.3642-1.1906 3.5762-1.1386-.3791 1.1906-3.5762zm-2.3813 7.1523-1.1907 3.5761-1.1385-.379 1.1906-3.5762zm-2.3813 7.1523-1.1907 3.5761-1.1385-.379 1.1906-3.5762zm-2.3813 7.1523-1.19066 3.5761-1.13855-.379 1.19065-3.5762zm-2.38131 7.1519-.59533 1.788-1.13855-.379.59532-1.788z"/><circle cx="965.738" cy="84.993" r="1.49983" transform="matrix(0 1 -1 0 1050.731 -880.745)"/><circle cx="958.74" cy="84.993" r="1.49983" transform="matrix(0 1 -1 0 1043.733 -873.747)"/><circle cx="951.742" cy="84.993" r="1.49983" transform="matrix(0 1 -1 0 1036.735 -866.749)"/></g><rect fill="#7cf178" height="42.7951" rx="1.4" stroke="#000" stroke-dasharray="2 2" stroke-width="1.2" width="105.301" x="116.818" y="88.1615"/><path d="m159.58 102.949h2.136c1.824 0 2.988-.888 2.988-2.508 0-1.6436-1.164-2.4955-2.988-2.4955h-3.288v8.6155h1.152zm0-.996v-3.0116h2.076c1.224 0 1.908.5279 1.908 1.4996 0 .972-.684 1.512-1.908 1.512zm9.399-1.692c-.108-.012-.264-.024-.432-.024-.852 0-1.464.48-1.74 1.116v-1.068h-1.08v6.276h1.08v-3.432c0-1.104.732-1.824 1.644-1.824.204 0 .348.012.528.048zm3.439 6.432c1.248 0 2.196-.684 2.58-1.8l-.948-.336c-.192.744-.792 1.2-1.632 1.2-1.092 0-1.848-.84-1.908-2.16h4.536v-.36c0-1.74-.924-3.072-2.676-3.072-1.704 0-2.892 1.392-2.892 3.264 0 1.932 1.2 3.264 2.94 3.264zm-.06-5.604c1.092 0 1.572.792 1.596 1.68h-3.384c.192-1.068.876-1.68 1.788-1.68zm6.59 5.472 2.352-6.276h-1.128l-1.74 4.956-1.763-4.956h-1.14l2.352 6.276zm-37.923 11.5c0 1.2.612 1.56 1.68 1.56.36 0 .671-.036.947-.096v-.924c-.252.06-.431.072-.683.072-.552 0-.876-.12-.876-.78v-3.684h1.427v-.924h-1.427v-1.836h-1.068v1.836h-.972v.924h.972zm6.382 1.632c1.248 0 2.196-.684 2.58-1.8l-.948-.336c-.192.744-.792 1.2-1.632 1.2-1.092 0-1.848-.84-1.908-2.16h4.536v-.36c0-1.74-.924-3.072-2.676-3.072-1.704 0-2.892 1.392-2.892 3.264 0 1.932 1.2 3.264 2.94 3.264zm-.06-5.604c1.092 0 1.572.792 1.596 1.68h-3.384c.192-1.068.876-1.68 1.788-1.68zm7.638 5.472h1.224l-2.304-3.276 2.1-3h-1.188l-1.536 2.196-1.512-2.196h-1.236l2.1 3-2.292 3.276h1.176l1.728-2.472zm2.397-1.5c0 1.2.612 1.56 1.68 1.56.36 0 .672-.036.948-.096v-.924c-.252.06-.432.072-.684.072-.552 0-.876-.12-.876-.78v-3.684h1.428v-.924h-1.428v-1.836h-1.068v1.836h-.972v.924h.972zm6.609 0c0 1.2.612 1.56 1.68 1.56.36 0 .672-.036.948-.096v-.924c-.252.06-.432.072-.684.072-.552 0-.876-.12-.876-.78v-3.684h1.428v-.924h-1.428v-1.836h-1.068v1.836h-.972v.924h.972zm9.274-1.632c0-1.944-1.2-3.264-2.916-3.264s-2.915 1.32-2.915 3.264 1.199 3.264 2.915 3.264 2.916-1.32 2.916-3.264zm-4.74 0c0-1.44.72-2.352 1.824-2.352s1.824.912 1.824 2.352c0 1.428-.72 2.34-1.824 2.34s-1.824-.912-1.824-2.34zm7.193-5.483h-1.08v8.615h1.08v-2.1l.912-.924 2.16 3.024h1.26l-2.652-3.804 2.448-2.472h-1.344l-2.784 2.928zm7.58 8.747c1.247 0 2.195-.684 2.579-1.8l-.948-.336c-.192.744-.792 1.2-1.631 1.2-1.092 0-1.848-.84-1.908-2.16h4.535v-.36c0-1.74-.924-3.072-2.675-3.072-1.704 0-2.892 1.392-2.892 3.264 0 1.932 1.2 3.264 2.94 3.264zm-.06-5.604c1.091 0 1.571.792 1.595 1.68h-3.383c.192-1.068.876-1.68 1.788-1.68zm4.032 5.472h1.079v-3.744c0-1.044.792-1.644 1.572-1.644.936 0 1.308.66 1.308 1.536v3.852h1.08v-4.14c0-1.332-.756-2.256-2.088-2.256-.888 0-1.512.456-1.872.972v-.852h-1.079zm6.076-1.332c.48.972 1.62 1.464 2.76 1.464 1.344 0 2.436-.792 2.436-1.992 0-1.368-1.236-1.584-2.316-1.836-.876-.192-1.428-.3-1.428-.888 0-.564.48-.924 1.2-.924.792 0 1.38.396 1.704 1.02l.768-.612c-.372-.744-1.296-1.296-2.424-1.296-1.332 0-2.304.78-2.304 1.896 0 1.284 1.08 1.512 2.112 1.74 1.032.216 1.632.312 1.632.996s-.648.996-1.38.996c-.816 0-1.584-.444-1.92-1.176z" fill="#000"/><rect fill="#ededed" height="39.9955" rx="2" width="106.501" x="243.391" y="89.5605"/><path d="m277.152 104.784c.588 1.164 2.016 1.908 3.504 1.908 1.704 0 3.131-1.02 3.131-2.628 0-1.824-1.571-2.124-2.999-2.46-1.212-.288-2.016-.48-2.016-1.392 0-.8276.756-1.4036 1.8-1.4036 1.116 0 1.8.564 2.244 1.3916l.875-.6956c-.515-.9719-1.595-1.6919-3.095-1.6919-1.632 0-2.94.9839-2.94 2.4955 0 1.62 1.344 1.992 2.7 2.316 1.308.312 2.304.492 2.304 1.536 0 .984-.864 1.536-1.98 1.536s-2.088-.6-2.628-1.632zm8.133.276c0 1.2.611 1.56 1.679 1.56.36 0 .672-.036.948-.096v-.924c-.252.06-.432.072-.684.072-.552 0-.876-.12-.876-.78v-3.684h1.428v-.924h-1.428v-1.8355h-1.067v1.8355h-.972v.924h.972zm5.481 1.608c.852 0 1.548-.324 1.932-.816.132.6.684.828 1.644.708v-.864c-.42.096-.672-.036-.672-.444v-3.06c0-1.344-.864-2.028-2.268-2.028-1.284 0-2.208.732-2.508 1.752l1.02.264c.192-.696.66-1.068 1.452-1.068.84 0 1.236.408 1.236 1.128v.264l-1.524.312c-1.404.288-2.376.804-2.376 2.052 0 1.128.924 1.8 2.064 1.8zm1.836-2.244c0 .804-.78 1.368-1.704 1.368-.684 0-1.128-.36-1.128-.972 0-.756.648-1.02 1.608-1.212l1.224-.264zm6.16-4.164c-.108-.012-.264-.024-.432-.024-.852 0-1.464.48-1.74 1.116v-1.068h-1.08v6.276h1.08v-3.432c0-1.104.732-1.824 1.644-1.824.204 0 .348.012.528.048zm1.427 4.8c0 1.2.612 1.56 1.68 1.56.36 0 .672-.036.948-.096v-.924c-.252.06-.432.072-.684.072-.552 0-.876-.12-.876-.78v-3.684h1.428v-.924h-1.428v-1.8355h-1.068v1.8355h-.972v.924h.972zm11.84-1.632c0-1.944-1.2-3.264-2.915-3.264-1.716 0-2.916 1.32-2.916 3.264s1.2 3.264 2.916 3.264c1.715 0 2.915-1.32 2.915-3.264zm-4.739 0c0-1.44.72-2.352 1.824-2.352 1.103 0 1.823.912 1.823 2.352 0 1.428-.72 2.34-1.823 2.34-1.104 0-1.824-.912-1.824-2.34zm8.848-5.5915c-.24-.012-.36-.024-.576-.024-1.284 0-1.956.744-1.956 1.9678v.5037h-.947v.924h.947v5.352h1.08v-5.352h1.392v-.924h-1.392v-.4317c0-.8039.348-1.0799.984-1.0799.18 0 .288 0 .468.024zm-44.463 20.2235c0 1.2.612 1.56 1.68 1.56.36 0 .671-.036.947-.096v-.924c-.252.06-.431.072-.683.072-.552 0-.876-.12-.876-.78v-3.684h1.427v-.924h-1.427v-1.836h-1.068v1.836h-.972v.924h.972zm7.161-4.8c-.108-.012-.264-.024-.432-.024-.852 0-1.464.48-1.74 1.116v-1.068h-1.08v6.276h1.08v-3.432c0-1.104.732-1.824 1.644-1.824.204 0 .348.012.528.048zm2.632 6.408c.852 0 1.548-.324 1.932-.816.132.6.684.828 1.644.708v-.864c-.42.096-.672-.036-.672-.444v-3.06c0-1.344-.864-2.028-2.268-2.028-1.284 0-2.208.732-2.508 1.752l1.02.264c.192-.696.66-1.068 1.452-1.068.84 0 1.236.408 1.236 1.128v.264l-1.524.312c-1.404.288-2.375.804-2.375 2.052 0 1.128.923 1.8 2.063 1.8zm1.836-2.244c0 .804-.78 1.368-1.704 1.368-.684 0-1.128-.36-1.128-.972 0-.756.648-1.02 1.608-1.212l1.224-.264zm2.908 2.136h1.08v-3.744c0-1.044.792-1.644 1.572-1.644.936 0 1.308.66 1.308 1.536v3.852h1.08v-4.14c0-1.332-.756-2.256-2.088-2.256-.888 0-1.512.456-1.872.972v-.852h-1.08zm6.077-1.332c.48.972 1.62 1.464 2.76 1.464 1.343 0 2.435-.792 2.435-1.992 0-1.368-1.236-1.584-2.315-1.836-.876-.192-1.428-.3-1.428-.888 0-.564.48-.924 1.2-.924.792 0 1.379.396 1.703 1.02l.768-.612c-.372-.744-1.296-1.296-2.423-1.296-1.332 0-2.304.78-2.304 1.896 0 1.284 1.08 1.512 2.112 1.74 1.032.216 1.631.312 1.631.996s-.647.996-1.379.996c-.816 0-1.584-.444-1.92-1.176zm7.179-1.8c0-1.44.768-2.328 1.884-2.328.864 0 1.38.564 1.56 1.332l.936-.468c-.3-1.044-1.188-1.8-2.496-1.8-1.752 0-2.964 1.32-2.964 3.264 0 1.932 1.212 3.264 2.964 3.264 1.308 0 2.22-.792 2.52-1.836l-.96-.444c-.18.78-.696 1.332-1.56 1.332-1.116 0-1.884-.888-1.884-2.316zm8.837-3.168c-.108-.012-.264-.024-.432-.024-.851 0-1.463.48-1.739 1.116v-1.068h-1.08v6.276h1.08v-3.432c0-1.104.732-1.824 1.644-1.824.203 0 .347.012.527.048zm1.142-1.068h1.176v-1.247h-1.176zm1.128 1.092h-1.08v6.276h1.08zm4.826 6.408c1.74 0 2.736-1.488 2.736-3.264 0-1.788-.996-3.264-2.736-3.264-.876 0-1.572.42-1.944 1.032v-.912h-1.08v8.435h1.08v-3.071c.372.624 1.068 1.044 1.944 1.044zm-1.968-3.48c0-1.464.888-2.1 1.776-2.1 1.176 0 1.836.96 1.836 2.316 0 1.344-.66 2.316-1.836 2.316-.888 0-1.776-.648-1.776-2.088zm6.236 1.848c0 1.2.612 1.56 1.68 1.56.36 0 .672-.036.948-.096v-.924c-.252.06-.432.072-.684.072-.552 0-.876-.12-.876-.78v-3.684h1.428v-.924h-1.428v-1.836h-1.068v1.836h-.972v.924h.972z" fill="#000"/><rect fill="#ededed" height="39.9955" rx="2" width="120.347" x="384.031" y="64.7295"/><path d="m408.358 88.7285h5.447v-1.0079h-4.295v-7.6071h-1.152zm8.191.108c.852 0 1.548-.324 1.932-.8159.132.5999.684.8279 1.644.7079v-.8639c-.42.096-.672-.036-.672-.4439v-3.0597c0-1.3438-.864-2.0278-2.268-2.0278-1.284 0-2.208.7319-2.508 1.7518l1.02.264c.192-.6959.66-1.0679 1.452-1.0679.84 0 1.236.408 1.236 1.1279v.264l-1.524.3119c-1.404.288-2.376.8039-2.376 2.0518 0 1.1279.924 1.7998 2.064 1.7998zm1.836-2.2437c0 .8039-.78 1.3678-1.704 1.3678-.684 0-1.128-.36-1.128-.9719 0-.7559.648-1.0199 1.608-1.2119l1.224-.2639zm2.908 2.1357h1.08v-3.7436c0-1.0438.792-1.6438 1.572-1.6438.936 0 1.308.6599 1.308 1.5358v3.8516h1.079v-4.1395c0-1.3319-.755-2.2558-2.087-2.2558-.888 0-1.512.456-1.872.9719v-.8519h-1.08zm12.088-.5639v-5.7114h-1.08v.9239c-.336-.6119-1.056-1.0439-1.92-1.0439-1.715 0-2.723 1.4159-2.723 3.1197 0 1.7158 1.008 3.1316 2.723 3.1316.876 0 1.584-.4319 1.92-1.0439v.708c0 1.3078-.732 1.8718-1.836 1.8718-.875 0-1.523-.468-1.727-1.2719l-1.008.384c.348 1.1518 1.356 1.7878 2.735 1.7878 1.704 0 2.916-1.0199 2.916-2.8557zm-1.068-2.8077v.228c0 1.3798-.84 2.0517-1.74 2.0517-1.139 0-1.835-.8639-1.835-2.1837 0-1.3199.696-2.1718 1.835-2.1718.9 0 1.74.6719 1.74 2.0758zm7.845-2.9037h-1.08v3.7796c0 1.0439-.792 1.6318-1.572 1.6318-.924 0-1.308-.5999-1.308-1.4878v-3.9236h-1.08v4.1516c0 1.3318.756 2.2557 2.1 2.2557.888 0 1.5-.4679 1.86-.9959v.8639h1.08zm3.365 6.3833c.852 0 1.547-.324 1.931-.8159.132.5999.684.8279 1.644.7079v-.8639c-.42.096-.672-.036-.672-.4439v-3.0597c0-1.3438-.864-2.0278-2.267-2.0278-1.284 0-2.208.7319-2.508 1.7518l1.02.264c.192-.6959.66-1.0679 1.452-1.0679.84 0 1.235.408 1.235 1.1279v.264l-1.523.3119c-1.404.288-2.376.8039-2.376 2.0518 0 1.1279.924 1.7998 2.064 1.7998zm1.835-2.2437c0 .8039-.779 1.3678-1.703 1.3678-.684 0-1.128-.36-1.128-.9719 0-.7559.648-1.0199 1.608-1.2119l1.223-.2639zm8.224 1.5718v-5.7114h-1.08v.9239c-.336-.6119-1.056-1.0439-1.92-1.0439-1.716 0-2.723 1.4159-2.723 3.1197 0 1.7158 1.007 3.1316 2.723 3.1316.876 0 1.584-.4319 1.92-1.0439v.708c0 1.3078-.732 1.8718-1.836 1.8718-.876 0-1.524-.468-1.728-1.2719l-1.007.384c.348 1.1518 1.355 1.7878 2.735 1.7878 1.704 0 2.916-1.0199 2.916-2.8557zm-1.068-2.8077v.228c0 1.3798-.84 2.0517-1.74 2.0517-1.14 0-1.836-.8639-1.836-2.1837 0-1.3199.696-2.1718 1.836-2.1718.9 0 1.74.6719 1.74 2.0758zm5.373 3.5036c1.248 0 2.196-.6839 2.579-1.7998l-.947-.336c-.192.744-.792 1.1999-1.632 1.1999-1.092 0-1.848-.8399-1.908-2.1598h4.535v-.3599c0-1.7398-.923-3.0717-2.675-3.0717-1.704 0-2.892 1.3919-2.892 3.2637 0 1.9317 1.2 3.2636 2.94 3.2636zm-.06-5.6034c1.092 0 1.572.7919 1.596 1.6798h-3.384c.192-1.0678.876-1.6798 1.788-1.6798zm6.731 3.9716c0 1.1998.612 1.5598 1.68 1.5598.359 0 .671-.036.947-.096v-.9239c-.252.06-.432.072-.683.072-.552 0-.876-.12-.876-.7799v-3.6836h1.427v-.9239h-1.427v-1.8358h-1.068v1.8358h-.972v.9239h.972zm5.481 1.6078c.852 0 1.548-.324 1.932-.8159.132.5999.684.8279 1.644.7079v-.8639c-.42.096-.672-.036-.672-.4439v-3.0597c0-1.3438-.864-2.0278-2.268-2.0278-1.284 0-2.208.7319-2.508 1.7518l1.02.264c.192-.6959.66-1.0679 1.452-1.0679.84 0 1.236.408 1.236 1.1279v.264l-1.524.3119c-1.404.288-2.376.8039-2.376 2.0518 0 1.1279.924 1.7998 2.064 1.7998zm1.836-2.2437c0 .8039-.78 1.3678-1.704 1.3678-.684 0-1.128-.36-1.128-.9719 0-.7559.648-1.0199 1.608-1.2119l1.224-.2639zm8.224 1.5718v-5.7114h-1.08v.9239c-.336-.6119-1.056-1.0439-1.92-1.0439-1.716 0-2.724 1.4159-2.724 3.1197 0 1.7158 1.008 3.1316 2.724 3.1316.876 0 1.584-.4319 1.92-1.0439v.708c0 1.3078-.732 1.8718-1.836 1.8718-.876 0-1.524-.468-1.728-1.2719l-1.008.384c.348 1.1518 1.356 1.7878 2.736 1.7878 1.704 0 2.916-1.0199 2.916-2.8557zm-1.068-2.8077v.228c0 1.3798-.84 2.0517-1.74 2.0517-1.14 0-1.836-.8639-1.836-2.1837 0-1.3199.696-2.1718 1.836-2.1718.9 0 1.74.6719 1.74 2.0758z" fill="#000"/><rect fill="#ededed" height="39.9955" rx="2" width="106.501" x="538.904" y="64.7295"/><path d="m571.003 81.1214v-1.0079h-6.983v1.0079h2.916v7.6071h1.152v-7.6071zm3.245 1.3078c-.108-.012-.264-.024-.432-.024-.852 0-1.464.48-1.74 1.1159v-1.0679h-1.079v6.2753h1.079v-3.4316c0-1.1039.732-1.8238 1.644-1.8238.204 0 .348.012.528.048zm2.632 6.4073c.852 0 1.548-.324 1.932-.8159.132.5999.684.8279 1.644.7079v-.8639c-.42.096-.672-.036-.672-.4439v-3.0597c0-1.3438-.864-2.0278-2.268-2.0278-1.284 0-2.207.7319-2.507 1.7518l1.02.264c.191-.6959.659-1.0679 1.451-1.0679.84 0 1.236.408 1.236 1.1279v.264l-1.524.3119c-1.403.288-2.375.8039-2.375 2.0518 0 1.1279.924 1.7998 2.063 1.7998zm1.836-2.2437c0 .8039-.78 1.3678-1.704 1.3678-.684 0-1.127-.36-1.127-.9719 0-.7559.647-1.0199 1.607-1.2119l1.224-.2639zm2.908 2.1357h1.08v-3.7436c0-1.0438.792-1.6438 1.572-1.6438.936 0 1.308.6599 1.308 1.5358v3.8516h1.08v-4.1395c0-1.3319-.756-2.2558-2.088-2.2558-.888 0-1.512.456-1.872.9719v-.8519h-1.08zm6.077-1.3318c.48.9719 1.62 1.4638 2.76 1.4638 1.344 0 2.435-.7919 2.435-1.9918 0-1.3678-1.235-1.5838-2.315-1.8358-.876-.1919-1.428-.2999-1.428-.8879 0-.5639.48-.9239 1.2-.9239.792 0 1.38.396 1.704 1.0199l.767-.6119c-.371-.7439-1.295-1.2959-2.423-1.2959-1.332 0-2.304.7799-2.304 1.8958 0 1.2839 1.08 1.5118 2.112 1.7398 1.032.216 1.632.312 1.632.9959s-.648.9959-1.38.9959c-.816 0-1.584-.4439-1.92-1.1759zm7.179-1.7998c0-1.4399.768-2.3278 1.884-2.3278.864 0 1.38.564 1.56 1.3319l.936-.468c-.3-1.0439-1.188-1.7998-2.496-1.7998-1.752 0-2.964 1.3199-2.964 3.2637 0 1.9317 1.212 3.2636 2.964 3.2636 1.308 0 2.22-.7919 2.52-1.8358l-.96-.4439c-.18.7799-.696 1.3318-1.56 1.3318-1.116 0-1.884-.8879-1.884-2.3157zm8.838-3.1677c-.108-.012-.264-.024-.432-.024-.852 0-1.464.48-1.74 1.1159v-1.0679h-1.08v6.2753h1.08v-3.4316c0-1.1039.732-1.8238 1.644-1.8238.204 0 .348.012.528.048zm1.141-1.0679h1.176v-1.2478h-1.176zm1.128 1.0919h-1.08v6.2753h1.08zm4.826 6.4073c1.74 0 2.736-1.4878 2.736-3.2636 0-1.7878-.996-3.2637-2.736-3.2637-.876 0-1.572.42-1.944 1.0319v-3.2516h-1.08v8.615h1.08v-.9119c.372.6239 1.068 1.0439 1.944 1.0439zm-1.968-3.4796c0-1.4638.888-2.0998 1.776-2.0998 1.176 0 1.836.9599 1.836 2.3158 0 1.3438-.66 2.3157-1.836 2.3157-.888 0-1.776-.6479-1.776-2.0878zm8.576 3.4796c1.248 0 2.196-.6839 2.58-1.7998l-.948-.336c-.192.744-.792 1.1999-1.632 1.1999-1.092 0-1.848-.8399-1.908-2.1598h4.536v-.3599c0-1.7398-.924-3.0717-2.676-3.0717-1.704 0-2.891 1.3919-2.891 3.2637 0 1.9317 1.199 3.2636 2.939 3.2636zm-.06-5.6034c1.092 0 1.572.7919 1.596 1.6798h-3.384c.192-1.0678.876-1.6798 1.788-1.6798z" fill="#000"/><rect height="36.7957" rx="1.4" stroke="#000" stroke-dasharray="2 2" stroke-width="1.2" width="62.7928" x="682.606" y="66.5951"/><path d="m699.477 81.9951h3.432c1.74 0 2.832-.8759 2.832-2.3757 0-1.0919-.648-1.8478-1.62-2.1118.66-.228 1.332-.7799 1.332-1.8838 0-1.4398-.972-2.2437-2.796-2.2437h-3.18zm1.116-4.9194v-2.7237h1.968c1.152 0 1.788.4439 1.788 1.3678 0 .9119-.636 1.3559-1.788 1.3559zm0 .9839h2.268c1.152 0 1.776.5999 1.776 1.4758 0 .8879-.624 1.4878-1.776 1.4878h-2.268zm9.042 4.0675c1.248 0 2.196-.6839 2.58-1.7998l-.948-.336c-.192.744-.792 1.1999-1.632 1.1999-1.092 0-1.847-.8399-1.907-2.1598h4.535v-.3599c0-1.7398-.924-3.0717-2.676-3.0717-1.703 0-2.891 1.3919-2.891 3.2637 0 1.9318 1.2 3.2636 2.939 3.2636zm-.06-5.6034c1.092 0 1.572.7919 1.596 1.6798h-3.383c.192-1.0678.875-1.6798 1.787-1.6798zm9.348 4.9075v-5.7114h-1.08v.9239c-.336-.6119-1.056-1.0439-1.92-1.0439-1.716 0-2.724 1.4159-2.724 3.1197 0 1.7158 1.008 3.1316 2.724 3.1316.876 0 1.584-.4319 1.92-1.0438v.7079c0 1.3078-.732 1.8718-1.836 1.8718-.876 0-1.524-.468-1.728-1.2719l-1.008.384c.348 1.1518 1.356 1.7878 2.736 1.7878 1.704 0 2.916-1.0199 2.916-2.8557zm-1.068-2.8077v.228c0 1.3798-.84 2.0517-1.74 2.0517-1.14 0-1.836-.8639-1.836-2.1837 0-1.3199.696-2.1718 1.836-2.1718.9 0 1.74.672 1.74 2.0758zm2.817-3.9956h1.176v-1.2478h-1.176zm1.128 1.0919h-1.08v6.2753h1.08zm1.802 6.2753h1.08v-3.7436c0-1.0438.792-1.6438 1.572-1.6438.936 0 1.308.6599 1.308 1.5358v3.8516h1.08v-4.1395c0-1.3319-.756-2.2558-2.088-2.2558-.888 0-1.512.456-1.872.9719v-.8519h-1.08zm-20.478 11.5002c0 1.1999.612 1.5598 1.68 1.5598.36 0 .672-.036.948-.096v-.9239c-.252.06-.432.072-.684.072-.552 0-.876-.12-.876-.7799v-3.6836h1.428v-.9239h-1.428v-1.8358h-1.068v1.8358h-.972v.9239h.972zm3.862-5.8674h1.176v-1.2478h-1.176zm1.128 1.0919h-1.08v6.2753h1.08zm2.882 2.5197c0-1.0198.768-1.6318 1.488-1.6318.888 0 1.248.6599 1.248 1.5358v3.8516h1.08v-3.7556c0-1.0198.768-1.6318 1.488-1.6318.888 0 1.248.6599 1.248 1.5358v3.8516h1.079v-4.1395c0-1.3319-.779-2.2558-2.075-2.2558-.984 0-1.656.552-2.004 1.0679-.312-.6479-.9-1.0679-1.74-1.0679-.876 0-1.476.456-1.812.9719v-.8519h-1.08v6.2753h1.08zm11.88 3.8876c1.248 0 2.196-.6839 2.58-1.7998l-.948-.336c-.192.744-.792 1.1999-1.632 1.1999-1.092 0-1.848-.8399-1.908-2.1598h4.536v-.3599c0-1.7398-.924-3.0717-2.676-3.0717-1.704 0-2.892 1.3919-2.892 3.2637 0 1.9318 1.2 3.2636 2.94 3.2636zm-.06-5.6034c1.092 0 1.572.7919 1.596 1.6798h-3.384c.192-1.0678.876-1.6798 1.788-1.6798z" fill="#000"/><rect height="36.7957" rx="1.4" stroke="#000" stroke-dasharray="2 2" stroke-width="1.2" width="62.7928" x="979.194" y="66.5951"/><path d="m996.065 81.9951h3.432c1.743 0 2.833-.8759 2.833-2.3757 0-1.0919-.65-1.8478-1.62-2.1118.66-.228 1.33-.7799 1.33-1.8838 0-1.4398-.97-2.2437-2.795-2.2437h-3.18zm1.116-4.9194v-2.7237h1.968c1.151 0 1.791.4439 1.791 1.3678 0 .9119-.64 1.3559-1.791 1.3559zm0 .9839h2.268c1.151 0 1.771.5999 1.771 1.4758 0 .8879-.62 1.4878-1.771 1.4878h-2.268zm9.039 4.0675c1.25 0 2.2-.6839 2.58-1.7998l-.94-.336c-.2.744-.8 1.1999-1.64 1.1999-1.09 0-1.84-.8399-1.9-2.1598h4.53v-.3599c0-1.7398-.92-3.0717-2.67-3.0717-1.71 0-2.9 1.3919-2.9 3.2637 0 1.9318 1.2 3.2636 2.94 3.2636zm-.06-5.6034c1.1 0 1.58.7919 1.6 1.6798h-3.38c.19-1.0678.87-1.6798 1.78-1.6798zm9.35 4.9075v-5.7114h-1.08v.9239c-.34-.6119-1.06-1.0439-1.92-1.0439-1.71 0-2.72 1.4159-2.72 3.1197 0 1.7158 1.01 3.1316 2.72 3.1316.88 0 1.58-.4319 1.92-1.0438v.7079c0 1.3078-.73 1.8718-1.83 1.8718-.88 0-1.53-.468-1.73-1.2719l-1.01.384c.35 1.1518 1.36 1.7878 2.74 1.7878 1.7 0 2.91-1.0199 2.91-2.8557zm-1.07-2.8077v.228c0 1.3798-.84 2.0517-1.74 2.0517-1.14 0-1.83-.8639-1.83-2.1837 0-1.3199.69-2.1718 1.83-2.1718.9 0 1.74.672 1.74 2.0758zm2.82-3.9956h1.18v-1.2478h-1.18zm1.13 1.0919h-1.08v6.2753h1.08zm1.8 6.2753h1.08v-3.7436c0-1.0438.79-1.6438 1.57-1.6438.94 0 1.31.6599 1.31 1.5358v3.8516h1.08v-4.1395c0-1.3319-.76-2.2558-2.09-2.2558-.89 0-1.51.456-1.87.9719v-.8519h-1.08zm-20.478 11.5002c0 1.1999.608 1.5598 1.678 1.5598.36 0 .67-.036.95-.096v-.9239c-.25.06-.43.072-.68.072-.56 0-.88-.12-.88-.7799v-3.6836h1.43v-.9239h-1.43v-1.8358h-1.068v1.8358h-.972v.9239h.972zm3.858-5.8674h1.18v-1.2478h-1.18zm1.13 1.0919h-1.08v6.2753h1.08zm2.88 2.5197c0-1.0198.77-1.6318 1.49-1.6318.89 0 1.25.6599 1.25 1.5358v3.8516h1.08v-3.7556c0-1.0198.77-1.6318 1.49-1.6318.89 0 1.25.6599 1.25 1.5358v3.8516h1.08v-4.1395c0-1.3319-.78-2.2558-2.08-2.2558-.98 0-1.66.552-2 1.0679-.32-.6479-.9-1.0679-1.74-1.0679-.88 0-1.48.456-1.82.9719v-.8519h-1.08v6.2753h1.08zm11.88 3.8876c1.25 0 2.2-.6839 2.58-1.7998l-.94-.336c-.2.744-.8 1.1999-1.64 1.1999-1.09 0-1.84-.8399-1.9-2.1598h4.53v-.3599c0-1.7398-.92-3.0717-2.67-3.0717-1.71 0-2.9 1.3919-2.9 3.2637 0 1.9318 1.2 3.2636 2.94 3.2636zm-.06-5.6034c1.1 0 1.58.7919 1.6 1.6798h-3.38c.19-1.0678.87-1.6798 1.78-1.6798z" fill="#000"/><rect fill="#7cf178" height="39.9955" rx="2" width="79.9911" x="770.262" y="64.9951"/><path d="m786.926 81.387v-1.0079h-6.983v1.0079h2.916v7.6071h1.152v-7.6071zm2.279 7.7391c1.248 0 2.195-.6839 2.579-1.7998l-.947-.3359c-.192.7439-.792 1.1998-1.632 1.1998-1.092 0-1.848-.8399-1.908-2.1597h4.535v-.36c0-1.7398-.923-3.0716-2.675-3.0716-1.704 0-2.892 1.3918-2.892 3.2636 0 1.9318 1.2 3.2636 2.94 3.2636zm-.06-5.6033c1.092 0 1.572.7919 1.596 1.6798h-3.384c.192-1.0679.876-1.6798 1.788-1.6798zm7.638 5.4713h1.223l-2.303-3.2756 2.099-2.9997h-1.187l-1.536 2.1958-1.512-2.1958h-1.236l2.1 2.9997-2.292 3.2756h1.176l1.728-2.4717zm2.397-1.4998c0 1.1999.612 1.5598 1.68 1.5598.36 0 .672-.036.948-.096v-.9239c-.252.06-.432.072-.684.072-.552 0-.876-.1199-.876-.7799v-3.6836h1.428v-.9239h-1.428v-1.8358h-1.068v1.8358h-.972v.9239h.972zm6.609 0c0 1.1999.612 1.5598 1.679 1.5598.36 0 .672-.036.948-.096v-.9239c-.252.06-.432.072-.684.072-.552 0-.875-.1199-.875-.7799v-3.6836h1.427v-.9239h-1.427v-1.8358h-1.068v1.8358h-.972v.9239h.972zm9.274-1.6318c0-1.9438-1.2-3.2636-2.916-3.2636s-2.916 1.3198-2.916 3.2636 1.2 3.2636 2.916 3.2636 2.916-1.3198 2.916-3.2636zm-4.74 0c0-1.4398.72-2.3517 1.824-2.3517s1.824.9119 1.824 2.3517c0 1.4278-.72 2.3397-1.824 2.3397s-1.824-.9119-1.824-2.3397zm7.193-5.4834h-1.08v8.615h1.08v-2.0997l.912-.9239 2.159 3.0236h1.26l-2.651-3.8035 2.447-2.4718h-1.344l-2.783 2.9277zm7.579 8.747c1.248 0 2.196-.6839 2.58-1.7998l-.948-.3359c-.192.7439-.792 1.1998-1.632 1.1998-1.092 0-1.848-.8399-1.908-2.1597h4.536v-.36c0-1.7398-.924-3.0716-2.676-3.0716-1.704 0-2.891 1.3918-2.891 3.2636 0 1.9318 1.199 3.2636 2.939 3.2636zm-.06-5.6033c1.092 0 1.572.7919 1.596 1.6798h-3.384c.192-1.0679.876-1.6798 1.788-1.6798zm4.032 5.4713h1.08v-3.7435c0-1.0439.792-1.6439 1.572-1.6439.936 0 1.308.66 1.308 1.5359v3.8515h1.08v-4.1395c0-1.3318-.756-2.2557-2.088-2.2557-.888 0-1.512.4559-1.872.9718v-.8519h-1.08zm6.077-1.3318c.48.9719 1.62 1.4638 2.76 1.4638 1.344 0 2.435-.7919 2.435-1.9918 0-1.3678-1.235-1.5838-2.315-1.8357-.876-.192-1.428-.3-1.428-.8879 0-.564.48-.9239 1.2-.9239.792 0 1.38.3959 1.704 1.0198l.767-.6119c-.372-.7439-1.295-1.2958-2.423-1.2958-1.332 0-2.304.7799-2.304 1.8957 0 1.2839 1.08 1.5119 2.112 1.7398 1.032.216 1.632.312 1.632.9959 0 .684-.648.9959-1.38.9959-.816 0-1.584-.4439-1.92-1.1758z" fill="#000"/><rect fill="#7cf178" height="39.9955" rx="2" width="79.9911" x="1066.58" y="64.9951"/><path d="m1083.25 81.387v-1.0079h-6.98v1.0079h2.91v7.6071h1.15v-7.6071zm2.28 7.7391c1.24 0 2.19-.6839 2.58-1.7998l-.95-.3359c-.19.7439-.79 1.1998-1.63 1.1998-1.09 0-1.85-.8399-1.91-2.1597h4.53v-.36c0-1.7398-.92-3.0716-2.67-3.0716-1.7 0-2.89 1.3918-2.89 3.2636 0 1.9318 1.2 3.2636 2.94 3.2636zm-.06-5.6033c1.09 0 1.57.7919 1.59 1.6798h-3.38c.19-1.0679.88-1.6798 1.79-1.6798zm7.63 5.4713h1.23l-2.31-3.2756 2.1-2.9997h-1.18l-1.54 2.1958-1.51-2.1958h-1.24l2.1 2.9997-2.29 3.2756h1.18l1.72-2.4717zm2.4-1.4998c0 1.1999.61 1.5598 1.68 1.5598.36 0 .67-.036.95-.096v-.9239c-.25.06-.43.072-.68.072-.56 0-.88-.1199-.88-.7799v-3.6836h1.43v-.9239h-1.43v-1.8358h-1.07v1.8358h-.97v.9239h.97zm6.61 0c0 1.1999.61 1.5598 1.68 1.5598.36 0 .67-.036.95-.096v-.9239c-.25.06-.43.072-.69.072-.55 0-.87-.1199-.87-.7799v-3.6836h1.43v-.9239h-1.43v-1.8358h-1.07v1.8358h-.97v.9239h.97zm9.27-1.6318c0-1.9438-1.2-3.2636-2.91-3.2636-1.72 0-2.92 1.3198-2.92 3.2636s1.2 3.2636 2.92 3.2636c1.71 0 2.91-1.3198 2.91-3.2636zm-4.73 0c0-1.4398.72-2.3517 1.82-2.3517s1.82.9119 1.82 2.3517c0 1.4278-.72 2.3397-1.82 2.3397s-1.82-.9119-1.82-2.3397zm7.19-5.4834h-1.08v8.615h1.08v-2.0997l.91-.9239 2.16 3.0236h1.26l-2.65-3.8035 2.45-2.4718h-1.35l-2.78 2.9277zm7.58 8.747c1.25 0 2.19-.6839 2.58-1.7998l-.95-.3359c-.19.7439-.79 1.1998-1.63 1.1998-1.09 0-1.85-.8399-1.91-2.1597h4.54v-.36c0-1.7398-.93-3.0716-2.68-3.0716-1.7 0-2.89 1.3918-2.89 3.2636 0 1.9318 1.2 3.2636 2.94 3.2636zm-.06-5.6033c1.09 0 1.57.7919 1.59 1.6798h-3.38c.19-1.0679.88-1.6798 1.79-1.6798zm4.03 5.4713h1.08v-3.7435c0-1.0439.79-1.6439 1.57-1.6439.94 0 1.31.66 1.31 1.5359v3.8515h1.08v-4.1395c0-1.3318-.76-2.2557-2.09-2.2557-.89 0-1.51.4559-1.87.9718v-.8519h-1.08zm6.08-1.3318c.48.9719 1.62 1.4638 2.76 1.4638 1.34 0 2.43-.7919 2.43-1.9918 0-1.3678-1.23-1.5838-2.31-1.8357-.88-.192-1.43-.3-1.43-.8879 0-.564.48-.9239 1.2-.9239.79 0 1.38.3959 1.7 1.0198l.77-.6119c-.37-.7439-1.3-1.2958-2.42-1.2958-1.34 0-2.31.7799-2.31 1.8957 0 1.2839 1.08 1.5119 2.11 1.7398 1.04.216 1.64.312 1.64.9959 0 .684-.65.9959-1.38.9959-.82 0-1.59-.4439-1.92-1.1758z" fill="#000"/><rect height="36.7957" rx="1.4" stroke="#000" stroke-dasharray="2 2" stroke-width="1.2" width="62.7928" x="874.85" y="66.5951"/><path d="m896.754 73.3801v8.615h5.627v-1.0079h-4.487v-2.9396h3.804v-1.0079h-3.804v-2.6517h4.487v-1.0079zm6.947 8.615h1.08v-3.7436c0-1.0438.792-1.6438 1.572-1.6438.936 0 1.308.6599 1.308 1.5358v3.8516h1.08v-4.1395c0-1.3319-.756-2.2558-2.088-2.2558-.888 0-1.512.456-1.872.9719v-.8519h-1.08zm9.077.132c.876 0 1.572-.42 1.944-1.0439v.9119h1.079v-8.615h-1.079v3.2516c-.372-.6119-1.068-1.0319-1.944-1.0319-1.74 0-2.736 1.4759-2.736 3.2637 0 1.7758.996 3.2636 2.736 3.2636zm1.968-3.4796v.4439c0 1.4399-.888 2.0878-1.776 2.0878-1.176 0-1.836-.9719-1.836-2.3157 0-1.3559.66-2.3158 1.836-2.3158.888 0 1.776.636 1.776 2.0998zm-19.378 14.8478c0 1.1999.612 1.5598 1.68 1.5598.36 0 .672-.036.948-.096v-.9239c-.252.06-.432.072-.684.072-.552 0-.876-.12-.876-.7799v-3.6836h1.428v-.9239h-1.428v-1.8358h-1.068v1.8358h-.972v.9239h.972zm3.862-5.8674h1.176v-1.2478h-1.176zm1.128 1.0919h-1.08v6.2753h1.08zm2.882 2.5197c0-1.0198.768-1.6318 1.488-1.6318.888 0 1.248.6599 1.248 1.5358v3.8516h1.08v-3.7556c0-1.0198.768-1.6318 1.488-1.6318.888 0 1.248.6599 1.248 1.5358v3.8516h1.08v-4.1395c0-1.3319-.78-2.2558-2.076-2.2558-.984 0-1.656.552-2.004 1.0679-.312-.6479-.9-1.0679-1.74-1.0679-.876 0-1.476.456-1.812.9719v-.8519h-1.079v6.2753h1.079zm11.88 3.8876c1.248 0 2.196-.6839 2.58-1.7998l-.948-.336c-.192.744-.792 1.1999-1.632 1.1999-1.092 0-1.848-.8399-1.908-2.1598h4.536v-.3599c0-1.7398-.924-3.0717-2.676-3.0717-1.704 0-2.891 1.3919-2.891 3.2637 0 1.9318 1.199 3.2636 2.939 3.2636zm-.06-5.6034c1.092 0 1.572.7919 1.596 1.6798h-3.384c.192-1.0678.876-1.6798 1.788-1.6798z" fill="#000"/><rect fill="#ededed" height="39.9955" rx="2" width="84.4448" x="1270.56" y="93.5605"/><path d="m1302.54 108.945v8.615h5.62v-1.008h-4.48v-2.94h3.8v-1.008h-3.8v-2.652h4.48v-1.007zm6.41 4.307c0 2.628 1.65 4.44 3.91 4.44 2.25 0 3.9-1.812 3.9-4.44s-1.65-4.439-3.9-4.439c-2.26 0-3.91 1.811-3.91 4.439zm6.67 0c0 2.04-1.14 3.42-2.76 3.42s-2.76-1.38-2.76-3.42 1.14-3.42 2.76-3.42 2.76 1.38 2.76 3.42zm8.15-3.3v-1.007h-6.98v1.007h2.92v7.608h1.15v-7.608z" fill="#000"/><rect fill="#ededed" height="39.9955" rx="2" width="120.347" x="384.031" y="120.989"/><path d="m423.494 136.372h-1.116v6.66l-4.475-6.66h-1.212v8.615h1.104v-6.935l4.703 6.935h.996zm7.243 5.484c0-1.944-1.2-3.264-2.916-3.264s-2.915 1.32-2.915 3.264c0 1.943 1.199 3.263 2.915 3.263s2.916-1.32 2.916-3.263zm-4.74 0c0-1.44.72-2.352 1.824-2.352s1.824.912 1.824 2.352c0 1.427-.72 2.339-1.824 2.339s-1.824-.912-1.824-2.339zm7.948 1.799c.48.972 1.62 1.464 2.76 1.464 1.344 0 2.436-.792 2.436-1.991 0-1.368-1.236-1.584-2.316-1.836-.876-.192-1.428-.3-1.428-.888 0-.564.48-.924 1.2-.924.792 0 1.38.396 1.704 1.02l.768-.612c-.372-.744-1.296-1.296-2.424-1.296-1.332 0-2.304.78-2.304 1.896 0 1.284 1.08 1.512 2.112 1.74 1.032.216 1.632.312 1.632.996 0 .683-.648.995-1.38.995-.816 0-1.584-.444-1.92-1.175zm9.555 1.464c1.74 0 2.736-1.488 2.736-3.263 0-1.788-.996-3.264-2.736-3.264-.876 0-1.572.42-1.944 1.032v-.912h-1.08v8.435h1.08v-3.072c.372.624 1.068 1.044 1.944 1.044zm-1.968-3.479c0-1.464.888-2.1 1.776-2.1 1.176 0 1.836.96 1.836 2.316 0 1.344-.66 2.315-1.836 2.315-.888 0-1.776-.648-1.776-2.087zm8.576 3.479c1.248 0 2.196-.684 2.58-1.8l-.948-.335c-.192.743-.792 1.199-1.632 1.199-1.092 0-1.847-.84-1.907-2.159h4.535v-.36c0-1.74-.924-3.072-2.676-3.072-1.703 0-2.891 1.392-2.891 3.264 0 1.931 1.2 3.263 2.939 3.263zm-.06-5.603c1.092 0 1.572.792 1.596 1.68h-3.383c.192-1.068.875-1.68 1.787-1.68zm6.54 5.603c1.248 0 2.196-.684 2.58-1.8l-.948-.335c-.192.743-.792 1.199-1.632 1.199-1.092 0-1.848-.84-1.908-2.159h4.536v-.36c0-1.74-.924-3.072-2.676-3.072-1.704 0-2.892 1.392-2.892 3.264 0 1.931 1.2 3.263 2.94 3.263zm-.06-5.603c1.092 0 1.572.792 1.596 1.68h-3.384c.192-1.068.876-1.68 1.788-1.68zm4.68 2.34c0-1.44.768-2.328 1.884-2.328.864 0 1.38.564 1.56 1.332l.936-.468c-.3-1.044-1.188-1.8-2.496-1.8-1.752 0-2.964 1.32-2.964 3.264 0 1.931 1.212 3.263 2.964 3.263 1.308 0 2.22-.792 2.52-1.836l-.96-.443c-.18.779-.696 1.331-1.56 1.331-1.116 0-1.884-.888-1.884-2.315zm5.586 3.131h1.08v-3.743c0-1.044.792-1.644 1.571-1.644.936 0 1.308.66 1.308 1.536v3.851h1.08v-4.139c0-1.332-.756-2.256-2.088-2.256-.887 0-1.511.456-1.871.972v-3.192h-1.08z" fill="#000"/><rect fill="#ededed" height="39.9955" rx="2" width="106.501" x="538.905" y="120.989"/><path d="m574.727 137.16v-1.007h-6.984v1.007h2.916v7.608h1.152v-7.608zm3.244 1.308c-.108-.012-.264-.024-.432-.024-.851 0-1.463.48-1.739 1.116v-1.068h-1.08v6.276h1.08v-3.432c0-1.104.732-1.824 1.643-1.824.204 0 .348.012.528.048zm2.633 6.408c.852 0 1.547-.324 1.931-.816.132.6.684.828 1.644.708v-.864c-.42.096-.672-.036-.672-.444v-3.06c0-1.344-.864-2.028-2.267-2.028-1.284 0-2.208.732-2.508 1.752l1.02.264c.192-.696.66-1.068 1.452-1.068.839 0 1.235.408 1.235 1.128v.264l-1.523.312c-1.404.288-2.376.804-2.376 2.052 0 1.128.924 1.8 2.064 1.8zm1.835-2.244c0 .804-.779 1.368-1.703 1.368-.684 0-1.128-.36-1.128-.972 0-.756.648-1.02 1.608-1.212l1.223-.264zm2.909 2.136h1.079v-3.744c0-1.044.792-1.644 1.572-1.644.936 0 1.308.66 1.308 1.536v3.852h1.08v-4.14c0-1.332-.756-2.256-2.088-2.256-.888 0-1.512.456-1.872.972v-.852h-1.079zm6.076-1.332c.48.972 1.62 1.464 2.76 1.464 1.344 0 2.436-.792 2.436-1.992 0-1.368-1.236-1.584-2.316-1.836-.876-.192-1.428-.3-1.428-.888 0-.564.48-.924 1.2-.924.792 0 1.38.396 1.704 1.02l.768-.612c-.372-.744-1.296-1.296-2.424-1.296-1.332 0-2.304.78-2.304 1.896 0 1.284 1.08 1.512 2.112 1.74 1.032.216 1.632.312 1.632.996s-.648.996-1.38.996c-.816 0-1.584-.444-1.92-1.176zm7.611-7.283h-1.08v8.615h1.08zm3.375 8.723c.852 0 1.548-.324 1.932-.816.132.6.683.828 1.643.708v-.864c-.42.096-.672-.036-.672-.444v-3.06c0-1.344-.863-2.028-2.267-2.028-1.284 0-2.208.732-2.508 1.752l1.02.264c.192-.696.66-1.068 1.452-1.068.84 0 1.236.408 1.236 1.128v.264l-1.524.312c-1.404.288-2.376.804-2.376 2.052 0 1.128.924 1.8 2.064 1.8zm1.836-2.244c0 .804-.78 1.368-1.704 1.368-.684 0-1.128-.36-1.128-.972 0-.756.648-1.02 1.608-1.212l1.224-.264zm3.076.636c0 1.2.612 1.56 1.679 1.56.36 0 .672-.036.948-.096v-.924c-.252.06-.432.072-.684.072-.552 0-.875-.12-.875-.78v-3.684h1.427v-.924h-1.427v-1.836h-1.068v1.836h-.972v.924h.972zm6.382 1.632c1.248 0 2.196-.684 2.58-1.8l-.948-.336c-.192.744-.792 1.2-1.632 1.2-1.092 0-1.848-.84-1.908-2.16h4.536v-.36c0-1.74-.924-3.072-2.676-3.072-1.704 0-2.892 1.392-2.892 3.264 0 1.932 1.2 3.264 2.94 3.264zm-.06-5.604c1.092 0 1.572.792 1.596 1.68h-3.384c.192-1.068.876-1.68 1.788-1.68z" fill="#000"/><rect fill="#ededed" height="39.9955" rx="2" width="127.986" x="682.205" y="120.989"/><path d="m713.184 136.373h-1.116v6.66l-4.475-6.66h-1.212v8.615h1.104v-6.935l4.703 6.935h.996zm7.243 5.484c0-1.944-1.2-3.264-2.916-3.264s-2.916 1.32-2.916 3.264c0 1.943 1.2 3.263 2.916 3.263s2.916-1.32 2.916-3.263zm-4.74 0c0-1.44.72-2.352 1.824-2.352s1.824.912 1.824 2.352c0 1.427-.72 2.339-1.824 2.339s-1.824-.912-1.824-2.339zm8.812 1.631c0 1.2.612 1.56 1.68 1.56.36 0 .672-.036.948-.096v-.924c-.252.06-.432.072-.684.072-.552 0-.876-.12-.876-.78v-3.683h1.428v-.924h-1.428v-1.836h-1.068v1.836h-.972v.924h.972zm3.862-5.867h1.175v-1.248h-1.175zm1.127 1.092h-1.079v6.275h1.079zm2.883 2.52c0-1.02.768-1.632 1.488-1.632.888 0 1.248.66 1.248 1.536v3.851h1.079v-3.755c0-1.02.768-1.632 1.488-1.632.888 0 1.248.66 1.248 1.536v3.851h1.08v-4.139c0-1.332-.78-2.256-2.076-2.256-.984 0-1.656.552-2.004 1.068-.311-.648-.899-1.068-1.739-1.068-.876 0-1.476.456-1.812.972v-.852h-1.08v6.275h1.08zm11.88 3.887c1.248 0 2.195-.684 2.579-1.8l-.948-.335c-.191.743-.791 1.199-1.631 1.199-1.092 0-1.848-.84-1.908-2.159h4.535v-.36c0-1.74-.924-3.072-2.675-3.072-1.704 0-2.892 1.392-2.892 3.264 0 1.931 1.2 3.263 2.94 3.263zm-.06-5.603c1.092 0 1.571.792 1.595 1.68h-3.383c.192-1.068.876-1.68 1.788-1.68zm3.336 4.139c.48.972 1.62 1.464 2.759 1.464 1.344 0 2.436-.792 2.436-1.992 0-1.367-1.236-1.583-2.316-1.835-.875-.192-1.427-.3-1.427-.888 0-.564.48-.924 1.199-.924.792 0 1.38.396 1.704 1.02l.768-.612c-.372-.744-1.296-1.296-2.424-1.296-1.331 0-2.303.78-2.303 1.896 0 1.284 1.08 1.512 2.111 1.74 1.032.216 1.632.312 1.632.995 0 .684-.648.996-1.38.996-.815 0-1.583-.444-1.919-1.176zm6.699-.168c0 1.2.612 1.56 1.68 1.56.36 0 .672-.036.948-.096v-.924c-.252.06-.432.072-.684.072-.552 0-.876-.12-.876-.78v-3.683h1.428v-.924h-1.428v-1.836h-1.068v1.836h-.972v.924h.972zm5.481 1.608c.852 0 1.548-.324 1.932-.816.132.6.684.828 1.644.708v-.864c-.42.096-.672-.036-.672-.444v-3.059c0-1.344-.864-2.028-2.268-2.028-1.283 0-2.207.732-2.507 1.752l1.02.264c.192-.696.659-1.068 1.451-1.068.84 0 1.236.408 1.236 1.128v.264l-1.524.312c-1.403.288-2.375.804-2.375 2.051 0 1.128.924 1.8 2.063 1.8zm1.836-2.243c0 .803-.78 1.367-1.704 1.367-.683 0-1.127-.36-1.127-.972 0-.755.648-1.019 1.607-1.211l1.224-.264zm3.988-1.62c0-1.02.768-1.632 1.488-1.632.888 0 1.248.66 1.248 1.536v3.851h1.08v-3.755c0-1.02.768-1.632 1.488-1.632.888 0 1.247.66 1.247 1.536v3.851h1.08v-4.139c0-1.332-.78-2.256-2.075-2.256-.984 0-1.656.552-2.004 1.068-.312-.648-.9-1.068-1.74-1.068-.876 0-1.476.456-1.812.972v-.852h-1.08v6.275h1.08zm12.396 3.887c1.74 0 2.736-1.488 2.736-3.263 0-1.788-.996-3.264-2.736-3.264-.876 0-1.572.42-1.944 1.032v-.912h-1.08v8.435h1.08v-3.072c.372.624 1.068 1.044 1.944 1.044zm-1.968-3.479c0-1.464.888-2.1 1.776-2.1 1.176 0 1.836.96 1.836 2.316 0 1.343-.66 2.315-1.836 2.315-.888 0-1.776-.648-1.776-2.087zm5.373 2.015c.48.972 1.619 1.464 2.759 1.464 1.344 0 2.436-.792 2.436-1.992 0-1.367-1.236-1.583-2.316-1.835-.876-.192-1.428-.3-1.428-.888 0-.564.48-.924 1.2-.924.792 0 1.38.396 1.704 1.02l.768-.612c-.372-.744-1.296-1.296-2.424-1.296-1.332 0-2.303.78-2.303 1.896 0 1.284 1.079 1.512 2.111 1.74 1.032.216 1.632.312 1.632.995 0 .684-.648.996-1.38.996-.816 0-1.584-.444-1.92-1.176z" fill="#000"/><path d="m1313.51 136.582 1.45 6.775-6.59-2.136zm-29.45 90.838-.57-.185zm-747.677 2.082-.54.263zm-32.737-68.443.924 1.894-1.078.526-.925-1.894zm2.773 5.682 1.848 3.788-1.078.526-1.849-3.788zm3.697 7.575 1.849 3.788-1.079.526-1.848-3.787zm3.697 7.576 1.849 3.788-1.078.526-1.849-3.788zm3.698 7.575 1.848 3.788-1.078.527-1.849-3.788zm3.697 7.576 1.849 3.788-1.079.526-1.848-3.788zm3.697 7.575 1.849 3.788-1.078.527-1.849-3.788zm3.698 7.576 1.848 3.788-1.078.526-1.849-3.788zm3.697 7.576 1.849 3.787-1.079.527-1.848-3.788zm3.698 7.575.924 1.894-1.079.526-.924-1.894zm.924 1.894c.317.65.677 1.271 1.074 1.86l-.995.671c-.428-.635-.816-1.304-1.158-2.005zm3.942 5.044c1.1.922 2.323 1.686 3.634 2.27l-.488 1.096c-1.413-.629-2.732-1.453-3.917-2.447zm7.753 3.451c.704.099 1.419.149 2.143.149v1.2c-.78 0-1.551-.054-2.31-.161zm2.143.149h1.995v1.2h-1.995zm5.984 0h3.989v1.2h-3.989zm7.979 0h3.989v1.2h-3.989zm7.978 0h3.99v1.2h-3.99zm7.979 0h3.989v1.2h-3.989zm7.979 0h3.989v1.2h-3.989zm7.978 0h3.99v1.2h-3.99zm7.979 0h3.989v1.2h-3.989zm7.979 0h3.989v1.2h-3.989zm7.978 0h3.99v1.2h-3.99zm7.979 0h3.989v1.2h-3.989zm7.979 0h3.989v1.2h-3.989zm7.978 0h3.99v1.2h-3.99zm7.979 0h3.989v1.2h-3.989zm7.979 0h3.989v1.2h-3.989zm7.978 0h3.99v1.2h-3.99zm7.979 0h3.989v1.2h-3.989zm7.979 0h3.989v1.2h-3.989zm7.978 0h3.99v1.2h-3.99zm7.979 0h3.989v1.2h-3.989zm7.979 0h3.989v1.2h-3.989zm7.978 0h3.99v1.2h-3.99zm7.979 0h3.989v1.2h-3.989zm7.979 0h3.989v1.2h-3.989zm7.978 0h3.99v1.2h-3.99zm7.979 0h3.989v1.2h-3.989zm7.979 0h3.989v1.2h-3.989zm7.978 0h3.99v1.2h-3.99zm7.979 0h3.989v1.2h-3.989zm7.979 0h3.989v1.2h-3.989zm7.978 0h3.99v1.2h-3.99zm7.979 0h3.99v1.2h-3.99zm7.979 0h3.989v1.2h-3.989zm7.979 0h3.989v1.2h-3.989zm7.978 0h3.99v1.2h-3.99zm7.979 0h3.989v1.2h-3.989zm7.979 0h3.989v1.2h-3.989zm7.978 0h3.99v1.2h-3.99zm7.979 0h3.989v1.2h-3.989zm7.979 0h3.989v1.2h-3.989zm7.978 0h3.99v1.2h-3.99zm7.979 0h3.989v1.2h-3.989zm7.979 0h3.989v1.2h-3.989zm7.978 0h3.99v1.2h-3.99zm7.979 0h3.99v1.2h-3.99zm7.979 0h3.989v1.2h-3.989zm7.979 0h3.989v1.2h-3.989zm7.978 0h3.99v1.2h-3.99zm7.979 0h3.989v1.2h-3.989zm7.979 0h3.989v1.2h-3.989zm7.978 0h3.99v1.2h-3.99zm7.979 0h3.989v1.2h-3.989zm7.979 0h3.989v1.2h-3.989zm7.978 0h3.99v1.2h-3.99zm7.979 0h3.99v1.2h-3.99zm7.979 0h3.989v1.2h-3.989zm7.979 0h3.989v1.2h-3.989zm7.978 0h3.99v1.2h-3.99zm7.98 0h3.99v1.2h-3.99zm7.98 0h3.99v1.2h-3.99zm7.98 0h3.99v1.2h-3.99zm7.98 0h3.98v1.2h-3.98zm7.97 0h3.99v1.2h-3.99zm7.98 0h3.99v1.2h-3.99zm7.98 0h3.99v1.2h-3.99zm7.98 0h3.99v1.2h-3.99zm7.98 0h3.99v1.2h-3.99zm7.98 0h3.99v1.2h-3.99zm7.98 0h3.99v1.2h-3.99zm7.97 0h3.99v1.2h-3.99zm7.98 0h3.99v1.2h-3.99zm7.98 0h3.99v1.2h-3.99zm7.98 0h3.99v1.2h-3.99zm7.98 0h3.99v1.2h-3.99zm7.98 0h3.99v1.2h-3.99zm7.98 0h3.99v1.2h-3.99zm7.97 0h3.99v1.2h-3.99zm7.98 0h3.99v1.2h-3.99zm7.98 0h3.99v1.2h-3.99zm7.98 0h3.99v1.2h-3.99zm7.98 0h3.99v1.2h-3.99zm7.98 0h3.99v1.2h-3.99zm7.98 0h3.99v1.2h-3.99zm7.98 0h3.98v1.2h-3.98zm7.97 0h3.99v1.2h-3.99zm7.98 0h3.99v1.2h-3.99zm7.98 0h3.99v1.2h-3.99zm7.98 0h3.99v1.2h-3.99zm7.98 0h3.99v1.2h-3.99zm7.98 0h3.99v1.2h-3.99zm7.98 0h1.99v1.2h-1.99zm1.99 0c.54 0 1.08-.028 1.61-.084l.13 1.194c-.57.06-1.15.09-1.74.09zm4.76-.753c1.03-.334 2.02-.775 2.94-1.311l.6 1.039c-1 .577-2.06 1.053-3.17 1.413zm5.55-3.205c.8-.717 1.52-1.519 2.15-2.394l.97.705c-.68.944-1.46 1.808-2.32 2.58zm3.76-5.184c.22-.488.41-.99.58-1.506l1.14.37c-.18.556-.39 1.097-.62 1.623zm.58-1.506.61-1.893 1.14.37-.61 1.893zm1.84-5.678 1.23-3.785 1.14.37-1.23 3.785zm2.45-7.57 1.23-3.785 1.14.371-1.22 3.785zm2.46-7.569 1.23-3.785 1.14.37-1.23 3.785zm2.45-7.57 1.23-3.785 1.14.37-1.23 3.785zm2.46-7.57 1.23-3.785 1.14.37-1.23 3.785zm2.45-7.57 1.23-3.785 1.14.37-1.23 3.785zm2.46-7.57 1.22-3.785 1.15.37-1.23 3.785zm2.45-7.57 1.23-3.785 1.14.371-1.23 3.784zm2.46-7.57 1.22-3.784 1.14.37-1.22 3.785zm2.45-7.569 1.23-3.785 1.14.37-1.23 3.785zm2.45-7.57 1.23-3.785 1.14.37-1.22 3.785z" fill="#000"/><rect height="36.7957" rx="1.4" stroke="#000" stroke-dasharray="2 2" stroke-width="1.2" width="62.7928" x="1171.17" y="66.5951"/><path d="m1193.08 73.3801v8.615h5.62v-1.0079h-4.48v-2.9396h3.8v-1.0079h-3.8v-2.6517h4.48v-1.0079zm6.94 8.615h1.08v-3.7436c0-1.0438.8-1.6438 1.58-1.6438.93 0 1.3.6599 1.3 1.5358v3.8516h1.08v-4.1395c0-1.3319-.75-2.2558-2.08-2.2558-.89 0-1.52.456-1.88.9719v-.8519h-1.08zm9.08.132c.88 0 1.57-.42 1.94-1.0439v.9119h1.08v-8.615h-1.08v3.2516c-.37-.6119-1.06-1.0319-1.94-1.0319-1.74 0-2.74 1.4759-2.74 3.2637 0 1.7758 1 3.2636 2.74 3.2636zm1.97-3.4796v.4439c0 1.4399-.89 2.0878-1.78 2.0878-1.17 0-1.83-.9719-1.83-2.3157 0-1.3559.66-2.3158 1.83-2.3158.89 0 1.78.636 1.78 2.0998zm-19.38 14.8478c0 1.1999.61 1.5598 1.68 1.5598.36 0 .67-.036.95-.096v-.9239c-.25.06-.43.072-.69.072-.55 0-.87-.12-.87-.7799v-3.6836h1.43v-.9239h-1.43v-1.8358h-1.07v1.8358h-.97v.9239h.97zm3.86-5.8674h1.18v-1.2478h-1.18zm1.13 1.0919h-1.08v6.2753h1.08zm2.88 2.5197c0-1.0198.77-1.6318 1.49-1.6318.89 0 1.25.6599 1.25 1.5358v3.8516h1.08v-3.7556c0-1.0198.77-1.6318 1.49-1.6318.88 0 1.24.6599 1.24 1.5358v3.8516h1.08v-4.1395c0-1.3319-.78-2.2558-2.07-2.2558-.99 0-1.66.552-2.01 1.0679-.31-.6479-.9-1.0679-1.74-1.0679-.87 0-1.47.456-1.81.9719v-.8519h-1.08v6.2753h1.08zm11.88 3.8876c1.25 0 2.2-.6839 2.58-1.7998l-.95-.336c-.19.744-.79 1.1999-1.63 1.1999-1.09 0-1.85-.8399-1.91-2.1598h4.54v-.3599c0-1.7398-.92-3.0717-2.68-3.0717-1.7 0-2.89 1.3919-2.89 3.2637 0 1.9318 1.2 3.2636 2.94 3.2636zm-.06-5.6034c1.09 0 1.57.7919 1.6 1.6798h-3.39c.2-1.0678.88-1.6798 1.79-1.6798z" fill="#000"/><rect fill="#7cf178" height="39.9955" rx="2" width="400.377" x="834.188" y="121.124"/><path d="m1011.05 137.515v-1.008h-6.99v1.008h2.92v7.607h1.15v-7.607zm2.27 7.739c1.25 0 2.2-.684 2.58-1.8l-.94-.336c-.2.744-.8 1.2-1.64 1.2-1.09 0-1.84-.84-1.9-2.16h4.53v-.36c0-1.739-.92-3.071-2.67-3.071-1.71 0-2.9 1.392-2.9 3.263 0 1.932 1.2 3.264 2.94 3.264zm-.06-5.603c1.1 0 1.58.792 1.6 1.679h-3.38c.19-1.067.87-1.679 1.78-1.679zm7.64 5.471h1.23l-2.31-3.276 2.1-2.999h-1.19l-1.53 2.196-1.51-2.196h-1.24l2.1 2.999-2.29 3.276h1.17l1.73-2.472zm2.4-1.5c0 1.2.61 1.56 1.68 1.56.36 0 .67-.036.95-.096v-.924c-.26.06-.44.072-.69.072-.55 0-.87-.12-.87-.78v-3.683h1.42v-.924h-1.42v-1.836h-1.07v1.836h-.97v.924h.97zm6.61 0c0 1.2.61 1.56 1.68 1.56.36 0 .67-.036.95-.096v-.924c-.26.06-.44.072-.69.072-.55 0-.87-.12-.87-.78v-3.683h1.42v-.924h-1.42v-1.836h-1.07v1.836h-.97v.924h.97zm9.27-1.632c0-1.943-1.2-3.263-2.91-3.263-1.72 0-2.92 1.32-2.92 3.263 0 1.944 1.2 3.264 2.92 3.264 1.71 0 2.91-1.32 2.91-3.264zm-4.74 0c0-1.439.72-2.351 1.83-2.351 1.1 0 1.82.912 1.82 2.351 0 1.428-.72 2.34-1.82 2.34-1.11 0-1.83-.912-1.83-2.34zm7.19-5.483h-1.08v8.615h1.08v-2.1l.92-.924 2.16 3.024h1.26l-2.66-3.804 2.45-2.471h-1.34l-2.79 2.927zm7.58 8.747c1.25 0 2.2-.684 2.58-1.8l-.94-.336c-.2.744-.8 1.2-1.64 1.2-1.09 0-1.84-.84-1.9-2.16h4.53v-.36c0-1.739-.92-3.071-2.67-3.071-1.71 0-2.9 1.392-2.9 3.263 0 1.932 1.2 3.264 2.94 3.264zm-.06-5.603c1.1 0 1.58.792 1.6 1.679h-3.38c.19-1.067.87-1.679 1.78-1.679zm4.04 5.471h1.08v-3.744c0-1.043.79-1.643 1.57-1.643.93 0 1.31.66 1.31 1.536v3.851h1.08v-4.139c0-1.332-.76-2.256-2.09-2.256-.89 0-1.51.456-1.87.972v-.852h-1.08zm6.07-1.332c.48.972 1.62 1.464 2.76 1.464 1.35 0 2.44-.792 2.44-1.992 0-1.368-1.24-1.584-2.32-1.836-.87-.191-1.43-.299-1.43-.887 0-.564.48-.924 1.2-.924.8 0 1.38.396 1.71 1.02l.77-.612c-.38-.744-1.3-1.296-2.43-1.296-1.33 0-2.3.78-2.3 1.896 0 1.283 1.08 1.511 2.11 1.739 1.03.216 1.63.312 1.63.996s-.65.996-1.38.996c-.81 0-1.58-.444-1.92-1.176z" fill="#000"/><rect fill="#ededed" height="39.9955" rx="2" width="57.809" x="38.0732" y="89.5605"/><path d="m57.0886 109.948h2.136c1.824 0 2.988-.888 2.988-2.508 0-1.644-1.164-2.496-2.988-2.496h-3.288v8.616h1.152zm0-.996v-3.012h2.076c1.224 0 1.908.528 1.908 1.5s-.684 1.512-1.908 1.512zm9.3997-1.692c-.108-.012-.264-.024-.432-.024-.852 0-1.464.48-1.74 1.116v-1.068h-1.08v6.276h1.08v-3.432c0-1.104.732-1.824 1.644-1.824.204 0 .348.012.528.048zm3.4396 6.432c1.248 0 2.196-.684 2.58-1.8l-.948-.336c-.192.744-.792 1.2-1.632 1.2-1.092 0-1.848-.84-1.908-2.16h4.536v-.36c0-1.74-.924-3.072-2.676-3.072-1.704 0-2.892 1.392-2.892 3.264 0 1.932 1.2 3.264 2.94 3.264zm-.06-5.604c1.092 0 1.572.792 1.596 1.68h-3.384c.192-1.068.876-1.68 1.788-1.68zm6.5912 5.472 2.352-6.276h-1.128l-1.74 4.956-1.764-4.956h-1.14l2.352 6.276z" fill="#000"/><path d="m894.974 23.3929v-1.0079h-6.983v1.0079h2.916v7.6071h1.152v-7.6071zm.942.2399h1.175v-1.2478h-1.175zm1.127 1.0919h-1.079v6.2753h1.079zm2.883 2.5197c0-1.0199.768-1.6318 1.488-1.6318.888 0 1.248.6599 1.248 1.5358v3.8516h1.08v-3.7556c0-1.0199.767-1.6318 1.487-1.6318.888 0 1.248.6599 1.248 1.5358v3.8516h1.08v-4.1395c0-1.3319-.78-2.2558-2.076-2.2558-.984 0-1.655.552-2.003 1.0679-.312-.6479-.9-1.0679-1.74-1.0679-.876 0-1.476.456-1.812.9719v-.8519h-1.08v6.2753h1.08zm11.88 3.8876c1.248 0 2.195-.6839 2.579-1.7998l-.947-.336c-.192.7439-.792 1.1999-1.632 1.1999-1.092 0-1.848-.8399-1.908-2.1598h4.535v-.3599c0-1.7398-.923-3.0717-2.675-3.0717-1.704 0-2.892 1.3919-2.892 3.2637 0 1.9317 1.2 3.2636 2.94 3.2636zm-.06-5.6034c1.092 0 1.572.7919 1.596 1.6798h-3.384c.192-1.0679.876-1.6798 1.788-1.6798zm8.135 5.5794c.851 0 1.547-.324 1.931-.8159.132.5999.684.8279 1.644.7079v-.8639c-.42.096-.672-.036-.672-.444v-3.0596c0-1.3439-.864-2.0278-2.268-2.0278-1.283 0-2.207.7319-2.507 1.7518l1.02.264c.192-.6959.66-1.0679 1.451-1.0679.84 0 1.236.408 1.236 1.1279v.264l-1.523.3119c-1.404.288-2.376.8039-2.376 2.0518 0 1.1279.924 1.7998 2.064 1.7998zm1.835-2.2438c0 .8039-.78 1.3679-1.703 1.3679-.684 0-1.128-.36-1.128-.9719 0-.7559.648-1.0199 1.607-1.2119l1.224-.2639zm3.988-6.4792h-1.08v8.615h1.08zm1.755 1.2478h1.176v-1.2478h-1.176zm1.128 1.0919h-1.08v6.2753h1.08zm7.118 5.7114v-5.7114h-1.08v.9239c-.336-.6119-1.056-1.0439-1.92-1.0439-1.716 0-2.724 1.4159-2.724 3.1197 0 1.7158 1.008 3.1316 2.724 3.1316.876 0 1.584-.4319 1.92-1.0439v.708c0 1.3078-.732 1.8717-1.836 1.8717-.876 0-1.524-.4679-1.728-1.2718l-1.008.3839c.348 1.1519 1.356 1.7878 2.736 1.7878 1.704 0 2.916-1.0198 2.916-2.8556zm-1.068-2.8077v.228c0 1.3798-.84 2.0517-1.74 2.0517-1.14 0-1.836-.8639-1.836-2.1837 0-1.3199.696-2.1718 1.836-2.1718.9 0 1.74.6719 1.74 2.0758zm2.865 3.3716h1.08v-3.7436c0-1.0439.792-1.6438 1.572-1.6438.935 0 1.307.6599 1.307 1.5358v3.8516h1.08v-4.1395c0-1.3319-.756-2.2558-2.087-2.2558-.888 0-1.512.456-1.872.9719v-.8519h-1.08zm9.28.132c1.248 0 2.196-.6839 2.58-1.7998l-.948-.336c-.192.7439-.792 1.1999-1.632 1.1999-1.092 0-1.848-.8399-1.907-2.1598h4.535v-.3599c0-1.7398-.924-3.0717-2.676-3.0717-1.704 0-2.891 1.3919-2.891 3.2637 0 1.9317 1.199 3.2636 2.939 3.2636zm-.06-5.6034c1.092 0 1.572.7919 1.596 1.6798h-3.384c.192-1.0679.876-1.6798 1.788-1.6798zm6.336 5.6034c.876 0 1.572-.42 1.944-1.0439v.9119h1.08v-8.615h-1.08v3.2516c-.372-.6119-1.068-1.0319-1.944-1.0319-1.74 0-2.736 1.4759-2.736 3.2637 0 1.7758.996 3.2636 2.736 3.2636zm1.968-3.4796v.4439c0 1.4399-.888 2.0878-1.776 2.0878-1.176 0-1.836-.9719-1.836-2.3157 0-1.3559.66-2.3158 1.836-2.3158.888 0 1.776.6359 1.776 2.0998zm5.54 1.8478c0 1.1998.612 1.5598 1.68 1.5598.36 0 .671-.036.947-.096v-.9239c-.252.06-.432.072-.683.072-.552 0-.876-.12-.876-.7799v-3.6836h1.427v-.9239h-1.427v-1.8358h-1.068v1.8358h-.972v.9239h.972zm7.161-4.7995c-.108-.012-.264-.024-.432-.024-.852 0-1.464.48-1.74 1.1159v-1.0679h-1.08v6.2753h1.08v-3.4316c0-1.1039.732-1.8238 1.644-1.8238.204 0 .348.012.528.048zm2.632 6.4073c.852 0 1.548-.324 1.932-.8159.132.5999.684.8279 1.644.7079v-.8639c-.42.096-.672-.036-.672-.444v-3.0596c0-1.3439-.864-2.0278-2.268-2.0278-1.284 0-2.208.7319-2.508 1.7518l1.02.264c.192-.6959.66-1.0679 1.452-1.0679.84 0 1.236.408 1.236 1.1279v.264l-1.524.3119c-1.404.288-2.375.8039-2.375 2.0518 0 1.1279.923 1.7998 2.063 1.7998zm1.836-2.2438c0 .8039-.78 1.3679-1.704 1.3679-.684 0-1.128-.36-1.128-.9719 0-.7559.648-1.0199 1.608-1.2119l1.224-.2639zm2.908 2.1358h1.08v-3.7436c0-1.0439.792-1.6438 1.572-1.6438.936 0 1.308.6599 1.308 1.5358v3.8516h1.08v-4.1395c0-1.3319-.756-2.2558-2.088-2.2558-.888 0-1.512.456-1.872.9719v-.8519h-1.08zm6.077-1.3319c.48.9719 1.62 1.4639 2.76 1.4639 1.343 0 2.435-.7919 2.435-1.9918 0-1.3678-1.236-1.5838-2.315-1.8358-.876-.192-1.428-.3-1.428-.8879 0-.5639.48-.9239 1.2-.9239.792 0 1.379.396 1.703 1.0199l.768-.6119c-.372-.7439-1.296-1.2959-2.423-1.2959-1.332 0-2.304.7799-2.304 1.8958 0 1.2839 1.08 1.5118 2.112 1.7398 1.032.216 1.631.312 1.631.9959s-.647.9959-1.379.9959c-.816 0-1.584-.444-1.92-1.1759zm7.179-1.7997c0-1.4399.768-2.3278 1.884-2.3278.864 0 1.38.5639 1.56 1.3319l.936-.468c-.3-1.0439-1.188-1.7998-2.496-1.7998-1.752 0-2.964 1.3199-2.964 3.2637 0 1.9317 1.212 3.2636 2.964 3.2636 1.308 0 2.22-.7919 2.52-1.8358l-.96-.444c-.18.78-.696 1.3319-1.56 1.3319-1.116 0-1.884-.8879-1.884-2.3157zm8.837-3.1677c-.108-.012-.264-.024-.432-.024-.851 0-1.463.48-1.739 1.1159v-1.0679h-1.08v6.2753h1.08v-3.4316c0-1.1039.732-1.8238 1.643-1.8238.204 0 .348.012.528.048zm1.142-1.0679h1.176v-1.2478h-1.176zm1.128 1.0919h-1.08v6.2753h1.08zm4.824 6.4073c1.74 0 2.74-1.4878 2.74-3.2636 0-1.7878-1-3.2637-2.74-3.2637-.87 0-1.57.42-1.94 1.0319v-.9119h-1.08v8.4351h1.08v-3.0717c.37.6239 1.07 1.0439 1.94 1.0439zm-1.97-3.4796c0-1.4639.89-2.0998 1.78-2.0998 1.18 0 1.84.9599 1.84 2.3158 0 1.3438-.66 2.3157-1.84 2.3157-.89 0-1.78-.6479-1.78-2.0878zm6.24 1.8478c0 1.1998.61 1.5598 1.68 1.5598.36 0 .67-.036.95-.096v-.9239c-.25.06-.43.072-.69.072-.55 0-.87-.12-.87-.7799v-3.6836h1.43v-.9239h-1.43v-1.8358h-1.07v1.8358h-.97v.9239h.97zm3.86-5.8674h1.18v-1.2478h-1.18zm1.13 1.0919h-1.08v6.2753h1.08zm7.2 3.1437c0-1.9438-1.2-3.2637-2.91-3.2637-1.72 0-2.92 1.3199-2.92 3.2637 0 1.9437 1.2 3.2636 2.92 3.2636 1.71 0 2.91-1.3199 2.91-3.2636zm-4.74 0c0-1.4399.72-2.3518 1.83-2.3518 1.1 0 1.82.9119 1.82 2.3518 0 1.4278-.72 2.3397-1.82 2.3397-1.11 0-1.83-.9119-1.83-2.3397zm6.12 3.1316h1.08v-3.7436c0-1.0439.79-1.6438 1.57-1.6438.93 0 1.3.6599 1.3 1.5358v3.8516h1.08v-4.1395c0-1.3319-.75-2.2558-2.08-2.2558-.89 0-1.51.456-1.87.9719v-.8519h-1.08z" fill="#000"/><path d="m1234.56 57.9961c0-5.5222-4.47-9.9989-9.99-9.9989h-256.187c-5.522 0-9.999-4.4766-9.999-9.9989" stroke="#a8a8a8" stroke-width="1.2"/><path d="m682.205 57.9961c0-5.5222 4.477-9.9989 9.999-9.9989h256.183c5.522 0 9.998-4.4766 9.998-9.9989" stroke="#a8a8a8" stroke-width="1.2"/><path d="m980.913 195.623v-1.008h-6.984v1.008h2.916v7.607h1.152v-7.607zm2.278 7.739c1.248 0 2.196-.683 2.58-1.799l-.948-.336c-.192.744-.792 1.2-1.632 1.2-1.092 0-1.848-.84-1.908-2.16h4.536v-.36c0-1.74-.924-3.072-2.676-3.072-1.704 0-2.892 1.392-2.892 3.264 0 1.932 1.2 3.263 2.94 3.263zm-.06-5.603c1.092 0 1.572.792 1.596 1.68h-3.384c.192-1.068.876-1.68 1.788-1.68zm7.638 5.471h1.224l-2.304-3.275 2.1-3h-1.188l-1.536 2.196-1.512-2.196h-1.236l2.1 3-2.292 3.275h1.176l1.728-2.471zm2.397-1.499c0 1.2.612 1.559 1.68 1.559.36 0 .672-.036.948-.096v-.923c-.252.06-.432.072-.684.072-.552 0-.876-.12-.876-.78v-3.684h1.428v-.924h-1.428v-1.836h-1.068v1.836h-.972v.924h.972zm3.259-1.512h3.275v-.972h-3.275zm10.375-.12c0-1.944-1.2-3.264-2.92-3.264-1.71 0-2.91 1.32-2.91 3.264s1.2 3.263 2.91 3.263c1.72 0 2.92-1.319 2.92-3.263zm-4.74 0c0-1.44.72-2.352 1.82-2.352 1.11 0 1.83.912 1.83 2.352 0 1.428-.72 2.34-1.83 2.34-1.1 0-1.82-.912-1.82-2.34zm6.11 3.131h1.08v-3.743c0-1.044.79-1.644 1.57-1.644.94 0 1.31.66 1.31 1.536v3.851h1.08v-4.139c0-1.332-.75-2.256-2.09-2.256-.88 0-1.51.456-1.87.972v-.852h-1.08zm7.85-8.615h-1.07v8.615h1.07zm4.14 9.299 2.7-6.959h-1.13l-1.74 4.8-1.77-4.8h-1.14l2.33 6.047-.3.744c-.25.624-.5.792-.97.792-.18 0-.31-.012-.52-.06v.936c.2.036.33.048.59.048 1.09 0 1.59-.6 1.95-1.548zm6.45-2.183c0 1.2.61 1.559 1.68 1.559.36 0 .67-.036.95-.096v-.923c-.26.06-.44.072-.69.072-.55 0-.87-.12-.87-.78v-3.684h1.42v-.924h-1.42v-1.836h-1.07v1.836h-.97v.924h.97zm7.16-4.8c-.11-.012-.26-.024-.43-.024-.85 0-1.47.48-1.74 1.116v-1.068h-1.08v6.275h1.08v-3.431c0-1.104.73-1.824 1.64-1.824.21 0 .35.012.53.048zm2.63 6.407c.85 0 1.55-.324 1.93-.815.14.599.69.827 1.65.707v-.863c-.42.096-.67-.036-.67-.444v-3.06c0-1.344-.87-2.028-2.27-2.028-1.29 0-2.21.732-2.51 1.752l1.02.264c.19-.696.66-1.068 1.45-1.068.84 0 1.24.408 1.24 1.128v.264l-1.53.312c-1.4.288-2.37.804-2.37 2.052 0 1.128.92 1.799 2.06 1.799zm1.84-2.243c0 .804-.78 1.368-1.71 1.368-.68 0-1.12-.36-1.12-.972 0-.756.64-1.02 1.6-1.212l1.23-.264zm2.91 2.135h1.08v-3.743c0-1.044.79-1.644 1.57-1.644.93 0 1.3.66 1.3 1.536v3.851h1.08v-4.139c0-1.332-.75-2.256-2.08-2.256-.89 0-1.51.456-1.87.972v-.852h-1.08zm6.07-1.331c.48.972 1.62 1.463 2.76 1.463 1.35 0 2.44-.791 2.44-1.991 0-1.368-1.24-1.584-2.32-1.836-.87-.192-1.43-.3-1.43-.888 0-.564.48-.924 1.2-.924.8 0 1.38.396 1.71 1.02l.77-.612c-.38-.744-1.3-1.296-2.43-1.296-1.33 0-2.3.78-2.3 1.896 0 1.284 1.08 1.512 2.11 1.74 1.03.216 1.63.312 1.63.996s-.65.996-1.38.996c-.81 0-1.58-.444-1.92-1.176zm7.18-1.8c0-1.44.77-2.328 1.88-2.328.87 0 1.38.564 1.56 1.332l.94-.468c-.3-1.044-1.19-1.8-2.5-1.8-1.75 0-2.96 1.32-2.96 3.264 0 1.932 1.21 3.263 2.96 3.263 1.31 0 2.22-.791 2.52-1.835l-.96-.444c-.18.78-.69 1.332-1.56 1.332-1.11 0-1.88-.888-1.88-2.316zm8.84-3.168c-.11-.012-.27-.024-.43-.024-.86 0-1.47.48-1.74 1.116v-1.068h-1.08v6.275h1.08v-3.431c0-1.104.73-1.824 1.64-1.824.2 0 .35.012.53.048zm1.14-1.068h1.18v-1.248h-1.18zm1.13 1.092h-1.08v6.275h1.08zm4.82 6.407c1.74 0 2.74-1.487 2.74-3.263 0-1.788-1-3.264-2.74-3.264-.87 0-1.57.42-1.94 1.032v-.912h-1.08v8.435h1.08v-3.071c.37.624 1.07 1.043 1.94 1.043zm-1.96-3.479c0-1.464.88-2.1 1.77-2.1 1.18 0 1.84.96 1.84 2.316 0 1.344-.66 2.316-1.84 2.316-.89 0-1.77-.648-1.77-2.088zm6.23 1.848c0 1.2.61 1.559 1.68 1.559.36 0 .67-.036.95-.096v-.923c-.25.06-.43.072-.68.072-.56 0-.88-.12-.88-.78v-3.684h1.43v-.924h-1.43v-1.836h-1.07v1.836h-.97v.924h.97zm3.86-5.868h1.18v-1.248h-1.18zm1.13 1.092h-1.08v6.275h1.08zm7.2 3.144c0-1.944-1.2-3.264-2.91-3.264-1.72 0-2.92 1.32-2.92 3.264s1.2 3.263 2.92 3.263c1.71 0 2.91-1.319 2.91-3.263zm-4.74 0c0-1.44.72-2.352 1.83-2.352 1.1 0 1.82.912 1.82 2.352 0 1.428-.72 2.34-1.82 2.34-1.11 0-1.83-.912-1.83-2.34zm6.12 3.131h1.08v-3.743c0-1.044.79-1.644 1.57-1.644.93 0 1.31.66 1.31 1.536v3.851h1.08v-4.139c0-1.332-.76-2.256-2.09-2.256-.89 0-1.51.456-1.87.972v-.852h-1.08z" fill="#000"/><path d="m569.473 34.66v-.84h-5.82v.84h2.43v6.34h.96v-6.34zm2.705 1.09c-.09-.01-.22-.02-.36-.02-.71 0-1.22.4-1.45.93v-.89h-.9v5.23h.9v-2.86c0-.92.61-1.52 1.37-1.52.17 0 .29.01.44.04zm2.194 5.34c.71 0 1.29-.27 1.61-.68.11.5.57.69 1.37.59v-.72c-.35.08-.56-.03-.56-.37v-2.55c0-1.12-.72-1.69-1.89-1.69-1.07 0-1.84.61-2.09 1.46l.85.22c.16-.58.55-.89 1.21-.89.7 0 1.03.34 1.03.94v.22l-1.27.26c-1.17.24-1.98.67-1.98 1.71 0 .94.77 1.5 1.72 1.5zm1.53-1.87c0 .67-.65 1.14-1.42 1.14-.57 0-.94-.3-.94-.81 0-.63.54-.85 1.34-1.01l1.02-.22zm2.423 1.78h.9v-3.12c0-.87.66-1.37 1.31-1.37.78 0 1.09.55 1.09 1.28v3.21h.9v-3.45c0-1.11-.63-1.88-1.74-1.88-.74 0-1.26.38-1.56.81v-.71h-.9zm5.065-1.11c.4.81 1.35 1.22 2.3 1.22 1.12 0 2.03-.66 2.03-1.66 0-1.14-1.03-1.32-1.93-1.53-.73-.16-1.19-.25-1.19-.74 0-.47.4-.77 1-.77.66 0 1.15.33 1.42.85l.64-.51c-.31-.62-1.08-1.08-2.02-1.08-1.11 0-1.92.65-1.92 1.58 0 1.07.9 1.26 1.76 1.45.86.18 1.36.26 1.36.83s-.54.83-1.15.83c-.68 0-1.32-.37-1.6-.98zm5.983-1.5c0-1.2.64-1.94 1.57-1.94.72 0 1.15.47 1.3 1.11l.78-.39c-.25-.87-.99-1.5-2.08-1.5-1.46 0-2.47 1.1-2.47 2.72 0 1.61 1.01 2.72 2.47 2.72 1.09 0 1.85-.66 2.1-1.53l-.8-.37c-.15.65-.58 1.11-1.3 1.11-.93 0-1.57-.74-1.57-1.93zm7.365-2.64c-.09-.01-.22-.02-.36-.02-.71 0-1.22.4-1.45.93v-.89h-.9v5.23h.9v-2.86c0-.92.61-1.52 1.37-1.52.17 0 .29.01.44.04zm.951-.89h.98v-1.04h-.98zm.94.91h-.9v5.23h.9zm4.023 5.34c1.45 0 2.28-1.24 2.28-2.72 0-1.49-.83-2.72-2.28-2.72-.73 0-1.31.35-1.62.86v-.76h-.9v7.03h.9v-2.56c.31.52.89.87 1.62.87zm-1.64-2.9c0-1.22.74-1.75 1.48-1.75.98 0 1.53.8 1.53 1.93 0 1.12-.55 1.93-1.53 1.93-.74 0-1.48-.54-1.48-1.74zm5.197 1.54c0 1 .51 1.3 1.4 1.3.3 0 .56-.03.79-.08v-.77c-.21.05-.36.06-.57.06-.46 0-.73-.1-.73-.65v-3.07h1.19v-.77h-1.19v-1.53h-.89v1.53h-.81v.77h.81zm3.219-4.89h.98v-1.04h-.98zm.94.91h-.9v5.23h.9zm6.002 2.62c0-1.62-1-2.72-2.43-2.72s-2.43 1.1-2.43 2.72 1 2.72 2.43 2.72 2.43-1.1 2.43-2.72zm-3.95 0c0-1.2.6-1.96 1.52-1.96s1.52.76 1.52 1.96c0 1.19-.6 1.95-1.52 1.95s-1.52-.76-1.52-1.95zm5.095 2.61h.9v-3.12c0-.87.66-1.37 1.31-1.37.78 0 1.09.55 1.09 1.28v3.21h.9v-3.45c0-1.11-.63-1.88-1.74-1.88-.74 0-1.26.38-1.56.81v-.71h-.9z" fill="#747474"/><path d="m575.568 196.395v-.84h-5.82v.84h2.43v6.34h.96v-6.34zm2.705 1.09c-.09-.01-.22-.02-.36-.02-.71 0-1.22.4-1.45.93v-.89h-.9v5.23h.9v-2.86c0-.92.61-1.52 1.37-1.52.17 0 .29.01.44.04zm2.193 5.34c.71 0 1.29-.27 1.61-.68.11.5.57.69 1.37.59v-.72c-.35.08-.56-.03-.56-.37v-2.55c0-1.12-.72-1.69-1.89-1.69-1.07 0-1.84.61-2.09 1.46l.85.22c.16-.58.55-.89 1.21-.89.7 0 1.03.34 1.03.94v.22l-1.27.26c-1.17.24-1.98.67-1.98 1.71 0 .94.77 1.5 1.72 1.5zm1.53-1.87c0 .67-.65 1.14-1.42 1.14-.57 0-.94-.3-.94-.81 0-.63.54-.85 1.34-1.01l1.02-.22zm2.424 1.78h.9v-3.12c0-.87.66-1.37 1.31-1.37.78 0 1.09.55 1.09 1.28v3.21h.9v-3.45c0-1.11-.63-1.88-1.74-1.88-.74 0-1.26.38-1.56.81v-.71h-.9zm5.064-1.11c.4.81 1.35 1.22 2.3 1.22 1.12 0 2.03-.66 2.03-1.66 0-1.14-1.03-1.32-1.93-1.53-.73-.16-1.19-.25-1.19-.74 0-.47.4-.77 1-.77.66 0 1.15.33 1.42.85l.64-.51c-.31-.62-1.08-1.08-2.02-1.08-1.11 0-1.92.65-1.92 1.58 0 1.07.9 1.26 1.76 1.45.86.18 1.36.26 1.36.83s-.54.83-1.15.83c-.68 0-1.32-.37-1.6-.98zm6.344-6.07h-.9v7.18h.9zm2.812 7.27c.71 0 1.29-.27 1.61-.68.11.5.57.69 1.37.59v-.72c-.35.08-.56-.03-.56-.37v-2.55c0-1.12-.72-1.69-1.89-1.69-1.07 0-1.84.61-2.09 1.46l.85.22c.16-.58.55-.89 1.21-.89.7 0 1.03.34 1.03.94v.22l-1.27.26c-1.17.24-1.98.67-1.98 1.71 0 .94.77 1.5 1.72 1.5zm1.53-1.87c0 .67-.65 1.14-1.42 1.14-.57 0-.94-.3-.94-.81 0-.63.54-.85 1.34-1.01l1.02-.22zm2.564.53c0 1 .51 1.3 1.4 1.3.3 0 .56-.03.79-.08v-.77c-.21.05-.36.06-.57.06-.46 0-.73-.1-.73-.65v-3.07h1.19v-.77h-1.19v-1.53h-.89v1.53h-.81v.77h.81zm3.218-4.89h.98v-1.04h-.98zm.94.91h-.9v5.23h.9zm6.003 2.62c0-1.62-1-2.72-2.43-2.72s-2.43 1.1-2.43 2.72 1 2.72 2.43 2.72 2.43-1.1 2.43-2.72zm-3.95 0c0-1.2.6-1.96 1.52-1.96s1.52.76 1.52 1.96c0 1.19-.6 1.95-1.52 1.95s-1.52-.76-1.52-1.95zm5.094 2.61h.9v-3.12c0-.87.66-1.37 1.31-1.37.78 0 1.09.55 1.09 1.28v3.21h.9v-3.45c0-1.11-.63-1.88-1.74-1.88-.74 0-1.26.38-1.56.81v-.71h-.9z" fill="#747474"/><path d="m422.183 28h4.54v-.84h-3.58v-6.34h-.96zm6.826.09c.71 0 1.29-.27 1.61-.68.11.5.57.69 1.37.59v-.72c-.35.08-.56-.03-.56-.37v-2.55c0-1.12-.72-1.69-1.89-1.69-1.07 0-1.84.61-2.09 1.46l.85.22c.16-.58.55-.89 1.21-.89.7 0 1.03.34 1.03.94v.22l-1.27.26c-1.17.24-1.98.67-1.98 1.71 0 .94.77 1.5 1.72 1.5zm1.53-1.87c0 .67-.65 1.14-1.42 1.14-.57 0-.94-.3-.94-.81 0-.63.54-.85 1.34-1.01l1.02-.22zm2.424 1.78h.9v-3.12c0-.87.66-1.37 1.31-1.37.78 0 1.09.55 1.09 1.28v3.21h.9v-3.45c0-1.11-.63-1.88-1.74-1.88-.74 0-1.26.38-1.56.81v-.71h-.9zm10.074-.47v-4.76h-.9v.77c-.28-.51-.88-.87-1.6-.87-1.43 0-2.27 1.18-2.27 2.6 0 1.43.84 2.61 2.27 2.61.73 0 1.32-.36 1.6-.87v.59c0 1.09-.61 1.56-1.53 1.56-.73 0-1.27-.39-1.44-1.06l-.84.32c.29.96 1.13 1.49 2.28 1.49 1.42 0 2.43-.85 2.43-2.38zm-.89-2.34v.19c0 1.15-.7 1.71-1.45 1.71-.95 0-1.53-.72-1.53-1.82s.58-1.81 1.53-1.81c.75 0 1.45.56 1.45 1.73zm6.538-2.42h-.9v3.15c0 .87-.66 1.36-1.31 1.36-.77 0-1.09-.5-1.09-1.24v-3.27h-.9v3.46c0 1.11.63 1.88 1.75 1.88.74 0 1.25-.39 1.55-.83v.72h.9zm2.805 5.32c.71 0 1.29-.27 1.61-.68.11.5.57.69 1.37.59v-.72c-.35.08-.56-.03-.56-.37v-2.55c0-1.12-.72-1.69-1.89-1.69-1.07 0-1.84.61-2.09 1.46l.85.22c.16-.58.55-.89 1.21-.89.7 0 1.03.34 1.03.94v.22l-1.27.26c-1.17.24-1.98.67-1.98 1.71 0 .94.77 1.5 1.72 1.5zm1.53-1.87c0 .67-.65 1.14-1.42 1.14-.57 0-.94-.3-.94-.81 0-.63.54-.85 1.34-1.01l1.02-.22zm6.853 1.31v-4.76h-.9v.77c-.28-.51-.88-.87-1.6-.87-1.43 0-2.27 1.18-2.27 2.6 0 1.43.84 2.61 2.27 2.61.73 0 1.32-.36 1.6-.87v.59c0 1.09-.61 1.56-1.53 1.56-.73 0-1.27-.39-1.44-1.06l-.84.32c.29.96 1.13 1.49 2.28 1.49 1.42 0 2.43-.85 2.43-2.38zm-.89-2.34v.19c0 1.15-.7 1.71-1.45 1.71-.95 0-1.53-.72-1.53-1.82s.58-1.81 1.53-1.81c.75 0 1.45.56 1.45 1.73zm4.478 2.92c1.04 0 1.83-.57 2.15-1.5l-.79-.28c-.16.62-.66 1-1.36 1-.91 0-1.54-.7-1.59-1.8h3.78v-.3c0-1.45-.77-2.56-2.23-2.56-1.42 0-2.41 1.16-2.41 2.72 0 1.61 1 2.72 2.45 2.72zm-.05-4.67c.91 0 1.31.66 1.33 1.4h-2.82c.16-.89.73-1.4 1.49-1.4zm-47.148 10.38h-.96v7.18h.96zm3.459 7.29c.73 0 1.31-.35 1.62-.87v.76h.9v-7.18h-.9v2.71c-.31-.51-.89-.86-1.62-.86-1.45 0-2.28 1.23-2.28 2.72 0 1.48.83 2.72 2.28 2.72zm1.64-2.9v.37c0 1.2-.74 1.74-1.48 1.74-.98 0-1.53-.81-1.53-1.93 0-1.13.55-1.93 1.53-1.93.74 0 1.48.53 1.48 1.75zm4.457 2.9c1.04 0 1.83-.57 2.15-1.5l-.79-.28c-.16.62-.66 1-1.36 1-.91 0-1.54-.7-1.59-1.8h3.78v-.3c0-1.45-.77-2.56-2.23-2.56-1.42 0-2.41 1.16-2.41 2.72 0 1.61 1 2.72 2.45 2.72zm-.05-4.67c.91 0 1.31.66 1.33 1.4h-2.82c.16-.89.73-1.4 1.49-1.4zm3.361 4.56h.9v-3.12c0-.87.66-1.37 1.31-1.37.78 0 1.09.55 1.09 1.28v3.21h.9v-3.45c0-1.11-.63-1.88-1.74-1.88-.74 0-1.26.38-1.56.81v-.71h-.9zm5.784-1.25c0 1 .51 1.3 1.4 1.3.3 0 .56-.03.79-.08v-.77c-.21.05-.36.06-.57.06-.46 0-.73-.1-.73-.65v-3.07h1.19v-.77h-1.19v-1.53h-.89v1.53h-.81v.77h.81zm3.219-4.89h.98v-1.04h-.98zm.94.91h-.9v5.23h.9zm3.782-2.04c-.2-.01-.3-.02-.48-.02-1.07 0-1.63.62-1.63 1.64v.42h-.79v.77h.79v4.46h.9v-4.46h1.16v-.77h-1.16v-.36c0-.67.29-.9.82-.9.15 0 .24 0 .39.02zm.747 1.13h.98v-1.04h-.98zm.94.91h-.9v5.23h.9zm2.042 2.62c0-1.2.64-1.94 1.57-1.94.72 0 1.15.47 1.3 1.11l.78-.39c-.25-.87-.99-1.5-2.08-1.5-1.46 0-2.47 1.1-2.47 2.72 0 1.61 1.01 2.72 2.47 2.72 1.09 0 1.85-.66 2.1-1.53l-.8-.37c-.15.65-.58 1.11-1.3 1.11-.93 0-1.57-.74-1.57-1.93zm6.024 2.7c.71 0 1.29-.27 1.61-.68.11.5.57.69 1.37.59v-.72c-.35.08-.56-.03-.56-.37v-2.55c0-1.12-.72-1.69-1.89-1.69-1.07 0-1.84.61-2.09 1.46l.85.22c.16-.58.55-.89 1.21-.89.7 0 1.03.34 1.03.94v.22l-1.27.26c-1.17.24-1.98.67-1.98 1.71 0 .94.77 1.5 1.72 1.5zm1.53-1.87c0 .67-.65 1.14-1.42 1.14-.57 0-.94-.3-.94-.81 0-.63.54-.85 1.34-1.01l1.02-.22zm2.564.53c0 1 .51 1.3 1.4 1.3.3 0 .56-.03.79-.08v-.77c-.21.05-.36.06-.57.06-.46 0-.73-.1-.73-.65v-3.07h1.19v-.77h-1.19v-1.53h-.89v1.53h-.81v.77h.81zm3.218-4.89h.98v-1.04h-.98zm.94.91h-.9v5.23h.9zm6.002 2.62c0-1.62-1-2.72-2.43-2.72s-2.43 1.1-2.43 2.72 1 2.72 2.43 2.72 2.43-1.1 2.43-2.72zm-3.95 0c0-1.2.6-1.96 1.52-1.96s1.52.76 1.52 1.96c0 1.19-.6 1.95-1.52 1.95s-1.52-.76-1.52-1.95zm5.095 2.61h.9v-3.12c0-.87.66-1.37 1.31-1.37.78 0 1.09.55 1.09 1.28v3.21h.9v-3.45c0-1.11-.63-1.88-1.74-1.88-.74 0-1.26.38-1.56.81v-.71h-.9z" fill="#747474"/><path d="m418.373 189.735 2.71-7.18h-.98l-2.22 5.98-2.22-5.98h-1.03l2.73 7.18zm7.424-2.61c0-1.62-1-2.72-2.43-2.72s-2.43 1.1-2.43 2.72 1 2.72 2.43 2.72 2.43-1.1 2.43-2.72zm-3.95 0c0-1.2.6-1.96 1.52-1.96s1.52.76 1.52 1.96c0 1.19-.6 1.95-1.52 1.95s-1.52-.76-1.52-1.95zm5.054-3.53h.98v-1.04h-.98zm.94.91h-.9v5.23h.9zm2.043 2.62c0-1.2.64-1.94 1.57-1.94.72 0 1.15.47 1.3 1.11l.78-.39c-.25-.87-.99-1.5-2.08-1.5-1.46 0-2.47 1.1-2.47 2.72 0 1.61 1.01 2.72 2.47 2.72 1.09 0 1.85-.66 2.1-1.53l-.8-.37c-.15.65-.58 1.11-1.3 1.11-.93 0-1.57-.74-1.57-1.93zm6.745 2.72c1.04 0 1.83-.57 2.15-1.5l-.79-.28c-.16.62-.66 1-1.36 1-.91 0-1.54-.7-1.59-1.8h3.78v-.3c0-1.45-.77-2.56-2.23-2.56-1.42 0-2.41 1.16-2.41 2.72 0 1.61 1 2.72 2.45 2.72zm-.05-4.67c.91 0 1.31.66 1.33 1.4h-2.82c.16-.89.73-1.4 1.49-1.4zm7.65-2.62-2.77 7.18h.96l.72-1.89h3.22l.73 1.89h.97l-2.77-7.18zm.51 1.08 1.3 3.37h-2.58zm4.578 3.49c0-1.2.64-1.94 1.57-1.94.72 0 1.15.47 1.3 1.11l.78-.39c-.25-.87-.99-1.5-2.08-1.5-1.46 0-2.47 1.1-2.47 2.72 0 1.61 1.01 2.72 2.47 2.72 1.09 0 1.85-.66 2.1-1.53l-.8-.37c-.15.65-.58 1.11-1.3 1.11-.93 0-1.57-.74-1.57-1.93zm4.796 1.36c0 1 .51 1.3 1.4 1.3.3 0 .56-.03.79-.08v-.77c-.21.05-.36.06-.57.06-.46 0-.73-.1-.73-.65v-3.07h1.19v-.77h-1.19v-1.53h-.89v1.53h-.81v.77h.81zm3.218-4.89h.98v-1.04h-.98zm.94.91h-.9v5.23h.9zm3.732 5.23 1.96-5.23h-.94l-1.45 4.13-1.47-4.13h-.95l1.96 5.23zm2.799-6.14h.98v-1.04h-.98zm.94.91h-.9v5.23h.9zm1.642 3.98c0 1 .51 1.3 1.4 1.3.3 0 .56-.03.79-.08v-.77c-.21.05-.36.06-.57.06-.46 0-.73-.1-.73-.65v-3.07h1.19v-.77h-1.19v-1.53h-.89v1.53h-.81v.77h.81zm5.179 1.82 2.25-5.8h-.94l-1.45 4-1.47-4h-.95l1.94 5.04-.25.62c-.21.52-.42.66-.81.66-.15 0-.26-.01-.43-.05v.78c.16.03.27.04.49.04.91 0 1.32-.5 1.62-1.29zm-48.799 12.43h2.28c2.18 0 3.56-1.4 3.56-3.59s-1.38-3.59-3.56-3.59h-2.28zm.94-.83v-5.52h1.33c1.64 0 2.63 1.08 2.63 2.76 0 1.67-.99 2.76-2.62 2.76zm8.121.94c1.04 0 1.83-.57 2.15-1.5l-.79-.28c-.16.62-.66 1-1.36 1-.91 0-1.54-.7-1.59-1.8h3.78v-.3c0-1.45-.77-2.56-2.23-2.56-1.42 0-2.41 1.16-2.41 2.72 0 1.61 1 2.72 2.45 2.72zm-.05-4.67c.91 0 1.31.66 1.33 1.4h-2.82c.16-.89.73-1.4 1.49-1.4zm3.501 3.31c0 1 .51 1.3 1.4 1.3.3 0 .56-.03.79-.08v-.77c-.21.05-.36.06-.57.06-.46 0-.73-.1-.73-.65v-3.07h1.19v-.77h-1.19v-1.53h-.89v1.53h-.81v.77h.81zm5.319 1.36c1.04 0 1.83-.57 2.15-1.5l-.79-.28c-.16.62-.66 1-1.36 1-.91 0-1.54-.7-1.59-1.8h3.78v-.3c0-1.45-.77-2.56-2.23-2.56-1.42 0-2.41 1.16-2.41 2.72 0 1.61 1 2.72 2.45 2.72zm-.05-4.67c.91 0 1.31.66 1.33 1.4h-2.82c.16-.89.73-1.4 1.49-1.4zm3.9 1.95c0-1.2.64-1.94 1.57-1.94.72 0 1.15.47 1.3 1.11l.78-.39c-.25-.87-.99-1.5-2.08-1.5-1.46 0-2.47 1.1-2.47 2.72 0 1.61 1.01 2.72 2.47 2.72 1.09 0 1.85-.66 2.1-1.53l-.8-.37c-.15.65-.58 1.11-1.3 1.11-.93 0-1.57-.74-1.57-1.93zm4.796 1.36c0 1 .51 1.3 1.4 1.3.3 0 .56-.03.79-.08v-.77c-.21.05-.36.06-.57.06-.46 0-.73-.1-.73-.65v-3.07h1.19v-.77h-1.19v-1.53h-.89v1.53h-.81v.77h.81zm3.218-4.89h.98v-1.04h-.98zm.94.91h-.9v5.23h.9zm6.002 2.62c0-1.62-1-2.72-2.43-2.72s-2.43 1.1-2.43 2.72 1 2.72 2.43 2.72 2.43-1.1 2.43-2.72zm-3.95 0c0-1.2.6-1.96 1.52-1.96s1.52.76 1.52 1.96c0 1.19-.6 1.95-1.52 1.95s-1.52-.76-1.52-1.95zm5.095 2.61h.9v-3.12c0-.87.66-1.37 1.31-1.37.78 0 1.09.55 1.09 1.28v3.21h.9v-3.45c0-1.11-.63-1.88-1.74-1.88-.74 0-1.26.38-1.56.81v-.71h-.9z" fill="#747474"/><path d="m100.993 159.395c0-1.7.94-2.85 2.27-2.85.93 0 1.6.54 1.86 1.45l.91-.3c-.42-1.24-1.4-2-2.77-2-1.86 0-3.23 1.51-3.23 3.7s1.37 3.7 3.23 3.7c1.37 0 2.35-.76 2.77-2l-.91-.3c-.26.91-.93 1.45-1.86 1.45-1.33 0-2.27-1.15-2.27-2.85zm10.162-1.64h-.9v3.15c0 .87-.66 1.36-1.31 1.36-.77 0-1.09-.5-1.09-1.24v-3.27h-.9v3.46c0 1.11.63 1.88 1.75 1.88.74 0 1.25-.39 1.55-.83v.72h.9zm.914 4.12c.4.81 1.35 1.22 2.3 1.22 1.12 0 2.03-.66 2.03-1.66 0-1.14-1.03-1.32-1.93-1.53-.73-.16-1.19-.25-1.19-.74 0-.47.4-.77 1-.77.66 0 1.15.33 1.42.85l.64-.51c-.31-.62-1.08-1.08-2.02-1.08-1.11 0-1.92.65-1.92 1.58 0 1.07.9 1.26 1.76 1.45.86.18 1.36.26 1.36.83s-.54.83-1.15.83c-.68 0-1.32-.37-1.6-.98zm5.584-.14c0 1 .51 1.3 1.4 1.3.3 0 .56-.03.79-.08v-.77c-.21.05-.36.06-.57.06-.46 0-.73-.1-.73-.65v-3.07h1.19v-.77h-1.19v-1.53h-.89v1.53h-.81v.77h.81zm7.729-1.36c0-1.62-1-2.72-2.43-2.72s-2.43 1.1-2.43 2.72 1 2.72 2.43 2.72 2.43-1.1 2.43-2.72zm-3.95 0c0-1.2.6-1.96 1.52-1.96s1.52.76 1.52 1.96c0 1.19-.6 1.95-1.52 1.95s-1.52-.76-1.52-1.95zm5.994-.52c0-.85.64-1.36 1.24-1.36.74 0 1.04.55 1.04 1.28v3.21h.9v-3.13c0-.85.64-1.36 1.24-1.36.74 0 1.04.55 1.04 1.28v3.21h.9v-3.45c0-1.11-.65-1.88-1.73-1.88-.82 0-1.38.46-1.67.89-.26-.54-.75-.89-1.45-.89-.73 0-1.23.38-1.51.81v-.71h-.9v5.23h.9zm12.151 3.13 1.96-5.23h-.94l-1.45 4.13-1.47-4.13h-.95l1.96 5.23zm7.201-2.61c0-1.62-1-2.72-2.43-2.72s-2.43 1.1-2.43 2.72 1 2.72 2.43 2.72 2.43-1.1 2.43-2.72zm-3.95 0c0-1.2.6-1.96 1.52-1.96s1.52.76 1.52 1.96c0 1.19-.6 1.95-1.52 1.95s-1.52-.76-1.52-1.95zm5.635 0c0-1.2.64-1.94 1.57-1.94.72 0 1.15.47 1.3 1.11l.78-.39c-.25-.87-.99-1.5-2.08-1.5-1.46 0-2.47 1.1-2.47 2.72 0 1.61 1.01 2.72 2.47 2.72 1.09 0 1.85-.66 2.1-1.53l-.8-.37c-.15.65-.58 1.11-1.3 1.11-.93 0-1.57-.74-1.57-1.93zm6.024 2.7c.71 0 1.29-.27 1.61-.68.11.5.57.69 1.37.59v-.72c-.35.08-.56-.03-.56-.37v-2.55c0-1.12-.72-1.69-1.89-1.69-1.07 0-1.84.61-2.09 1.46l.85.22c.16-.58.55-.89 1.21-.89.7 0 1.03.34 1.03.94v.22l-1.27.26c-1.17.24-1.98.67-1.98 1.71 0 .94.77 1.5 1.72 1.5zm1.53-1.87c0 .67-.65 1.14-1.42 1.14-.57 0-.94-.3-.94-.81 0-.63.54-.85 1.34-1.01l1.02-.22zm4.943 1.89c1.45 0 2.28-1.24 2.28-2.72 0-1.49-.83-2.72-2.28-2.72-.73 0-1.31.35-1.62.86v-2.71h-.9v7.18h.9v-.76c.31.52.89.87 1.62.87zm-1.64-2.9c0-1.22.74-1.75 1.48-1.75.98 0 1.53.8 1.53 1.93 0 1.12-.55 1.93-1.53 1.93-.74 0-1.48-.54-1.48-1.74zm9.208-2.44h-.9v3.15c0 .87-.66 1.36-1.31 1.36-.77 0-1.09-.5-1.09-1.24v-3.27h-.9v3.46c0 1.11.63 1.88 1.75 1.88.74 0 1.25-.39 1.55-.83v.72h.9zm2.394-1.95h-.9v7.18h.9zm2.813 7.27c.71 0 1.29-.27 1.61-.68.11.5.57.69 1.37.59v-.72c-.35.08-.56-.03-.56-.37v-2.55c0-1.12-.72-1.69-1.89-1.69-1.07 0-1.84.61-2.09 1.46l.85.22c.16-.58.55-.89 1.21-.89.7 0 1.03.34 1.03.94v.22l-1.27.26c-1.17.24-1.98.67-1.98 1.71 0 .94.77 1.5 1.72 1.5zm1.53-1.87c0 .67-.65 1.14-1.42 1.14-.57 0-.94-.3-.94-.81 0-.63.54-.85 1.34-1.01l1.02-.22zm5.133-3.47c-.09-.01-.22-.02-.36-.02-.71 0-1.22.4-1.45.93v-.89h-.9v5.23h.9v-2.86c0-.92.61-1.52 1.37-1.52.17 0 .29.01.44.04zm2.99 5.82 2.25-5.8h-.94l-1.45 4-1.47-4h-.95l1.94 5.04-.25.62c-.21.52-.42.66-.81.66-.15 0-.26-.01-.43-.05v.78c.16.03.27.04.49.04.91 0 1.32-.5 1.62-1.29zm4.588.41h.92l2.9-8.36h-.92zm7.783-3.99h1.78c1.52 0 2.49-.74 2.49-2.09 0-1.37-.97-2.08-2.49-2.08h-2.74v7.18h.96zm0-.83v-2.51h1.73c1.02 0 1.59.44 1.59 1.25s-.57 1.26-1.59 1.26zm7.833-1.41c-.09-.01-.22-.02-.36-.02-.71 0-1.22.4-1.45.93v-.89h-.9v5.23h.9v-2.86c0-.92.61-1.52 1.37-1.52.17 0 .29.01.44.04zm5.276 2.64c0-1.62-1-2.72-2.43-2.72s-2.43 1.1-2.43 2.72 1 2.72 2.43 2.72 2.43-1.1 2.43-2.72zm-3.95 0c0-1.2.6-1.96 1.52-1.96s1.52.76 1.52 1.96c0 1.19-.6 1.95-1.52 1.95s-1.52-.76-1.52-1.95zm5.995-.52c0-.85.64-1.36 1.24-1.36.74 0 1.04.55 1.04 1.28v3.21h.9v-3.13c0-.85.64-1.36 1.24-1.36.74 0 1.04.55 1.04 1.28v3.21h.9v-3.45c0-1.11-.65-1.88-1.73-1.88-.82 0-1.38.46-1.67.89-.26-.54-.75-.89-1.45-.89-.73 0-1.23.38-1.51.81v-.71h-.9v5.23h.9zm10.331 3.24c1.45 0 2.28-1.24 2.28-2.72 0-1.49-.83-2.72-2.28-2.72-.73 0-1.31.35-1.62.86v-.76h-.9v7.03h.9v-2.56c.31.52.89.87 1.62.87zm-1.64-2.9c0-1.22.74-1.75 1.48-1.75.98 0 1.53.8 1.53 1.93 0 1.12-.55 1.93-1.53 1.93-.74 0-1.48-.54-1.48-1.74zm5.197 1.54c0 1 .51 1.3 1.4 1.3.3 0 .56-.03.79-.08v-.77c-.21.05-.36.06-.57.06-.46 0-.73-.1-.73-.65v-3.07h1.19v-.77h-1.19v-1.53h-.89v1.53h-.81v.77h.81zm3.219-4.89h.98v-1.04h-.98zm.94.91h-.9v5.23h.9zm1.502 5.23h.9v-3.12c0-.87.66-1.37 1.31-1.37.78 0 1.09.55 1.09 1.28v3.21h.9v-3.45c0-1.11-.63-1.88-1.74-1.88-.74 0-1.26.38-1.56.81v-.71h-.9zm10.074-.47v-4.76h-.9v.77c-.28-.51-.88-.87-1.6-.87-1.43 0-2.27 1.18-2.27 2.6 0 1.43.84 2.61 2.27 2.61.73 0 1.32-.36 1.6-.87v.59c0 1.09-.61 1.56-1.53 1.56-.73 0-1.27-.39-1.44-1.06l-.84.32c.29.96 1.13 1.49 2.28 1.49 1.42 0 2.43-.85 2.43-2.38zm-.89-2.34v.19c0 1.15-.7 1.71-1.45 1.71-.95 0-1.53-.72-1.53-1.82s.58-1.81 1.53-1.81c.75 0 1.45.56 1.45 1.73z" fill="#747474"/><path d="m834.189 168.233c0 5.523 4.477 9.999 9.999 9.999h180.192c5.52 0 10 4.477 10 9.999" stroke="#a8a8a8" stroke-width="1.2"/><path d="m1234.57 168.233c0 5.523-4.48 9.999-10 9.999h-180.19c-5.53 0-10 4.477-10 9.999" stroke="#a8a8a8" stroke-width="1.2"/><circle cx="6.53448" cy="109.559" fill="#000" r="5.99933"/><path d="m585.774 187.414-3-1.732v3.464zm-8 .3h5.3v-.6h-5.3z" fill="#747474"/><path d="m587.239 182.555v7.18h4.69v-.84h-3.74v-2.45h3.17v-.84h-3.17v-2.21h3.74v-.84zm5.79 7.18h.9v-3.12c0-.87.66-1.37 1.31-1.37.78 0 1.09.55 1.09 1.28v3.21h.9v-3.45c0-1.11-.63-1.88-1.74-1.88-.74 0-1.26.38-1.56.81v-.71h-.9zm10.075-.47v-4.76h-.9v.77c-.28-.51-.88-.87-1.6-.87-1.43 0-2.27 1.18-2.27 2.6 0 1.43.84 2.61 2.27 2.61.73 0 1.32-.36 1.6-.87v.59c0 1.09-.61 1.56-1.53 1.56-.73 0-1.27-.39-1.44-1.06l-.84.32c.29.96 1.13 1.49 2.28 1.49 1.42 0 2.43-.85 2.43-2.38zm-.89-2.34v.19c0 1.15-.7 1.71-1.45 1.71-.95 0-1.53-.72-1.53-1.82s.58-1.81 1.53-1.81c.75 0 1.45.56 1.45 1.73zm3.288-4.37h-.9v7.18h.9zm1.462 1.04h.98v-1.04h-.98zm.94.91h-.9v5.23h.9zm.922 4.12c.4.81 1.35 1.22 2.3 1.22 1.12 0 2.03-.66 2.03-1.66 0-1.14-1.03-1.32-1.93-1.53-.73-.16-1.19-.25-1.19-.74 0-.47.4-.77 1-.77.66 0 1.15.33 1.42.85l.64-.51c-.31-.62-1.08-1.08-2.02-1.08-1.11 0-1.92.65-1.92 1.58 0 1.07.9 1.26 1.76 1.45.86.18 1.36.26 1.36.83s-.54.83-1.15.83c-.68 0-1.32-.37-1.6-.98zm5.444 1.11h.9v-3.12c0-.87.66-1.37 1.31-1.37.78 0 1.09.55 1.09 1.28v3.21h.9v-3.45c0-1.11-.63-1.88-1.74-1.88-.74 0-1.26.38-1.56.81v-2.66h-.9z" fill="#747474"/><path d="m575.596 182.977h-1.06l-1.95 2.82-1.96-2.82h-1.08l2.47 3.54-2.55 3.64h1.06l2.04-2.94 2.03 2.94h1.08l-2.54-3.65z" fill="#747474"/><path d="m597.154 25.2578-2.999-1.7318v3.4637zm-7.999.3h5.3v-.6h-5.3z" fill="#747474"/><path d="m587.975 20.821h-1.06l-1.95 2.82-1.96-2.82h-1.08l2.47 3.54-2.55 3.64h1.06l2.04-2.94 2.03 2.94h1.08l-2.54-3.65z" fill="#747474"/><path d="m604.95 20.821h-1.06l-1.95 2.82-1.96-2.82h-1.08l2.47 3.54-2.55 3.64h1.06l2.04-2.94 2.03 2.94h1.08l-2.54-3.65z" fill="#747474"/><rect fill="#7cf178" height="23.9973" rx="2" width="23.9973" x="87.4932" y="210.639"/><path d="m125.572 213.547v-1.524h-7.176v1.524h2.712v7.092h1.764v-7.092zm2.217 7.224c1.26 0 2.328-.648 2.784-1.8l-1.416-.504c-.192.612-.708.924-1.356.924-.828 0-1.416-.576-1.536-1.536h4.344v-.492c0-1.764-1.008-3.156-2.88-3.156-1.788 0-3.072 1.416-3.072 3.276 0 1.956 1.272 3.288 3.132 3.288zm-.072-5.22c.816 0 1.212.54 1.224 1.164h-2.616c.204-.768.72-1.164 1.392-1.164zm7.315 5.088h1.872l-2.208-3.264 2.052-3.048h-1.8l-1.2 1.812-1.188-1.812h-1.872l2.052 3.048-2.196 3.264h1.8l1.344-2.016zm2.728-1.644c0 1.296.672 1.716 1.944 1.716.42 0 .78-.036 1.08-.096v-1.392c-.216.024-.336.036-.576.036-.492 0-.792-.072-.792-.612v-2.916h1.284v-1.404h-1.284v-1.8h-1.656v1.8h-.84v1.404h.84zm-18.476 13.144c0 1.2.612 1.56 1.68 1.56.36 0 .672-.036.948-.096v-.924c-.252.06-.432.072-.684.072-.552 0-.876-.12-.876-.78v-3.684h1.428v-.924h-1.428v-1.836h-1.068v1.836h-.972v.924h.972zm9.275-1.632c0-1.944-1.2-3.264-2.916-3.264s-2.916 1.32-2.916 3.264 1.2 3.264 2.916 3.264 2.916-1.32 2.916-3.264zm-4.74 0c0-1.44.72-2.352 1.824-2.352s1.824.912 1.824 2.352c0 1.428-.72 2.34-1.824 2.34s-1.824-.912-1.824-2.34zm7.193-5.484h-1.08v8.616h1.08v-2.1l.912-.924 2.16 3.024h1.26l-2.652-3.804 2.448-2.472h-1.344l-2.784 2.928zm7.581 8.748c1.248 0 2.196-.684 2.58-1.8l-.948-.336c-.192.744-.792 1.2-1.632 1.2-1.092 0-1.848-.84-1.908-2.16h4.536v-.36c0-1.74-.924-3.072-2.676-3.072-1.704 0-2.892 1.392-2.892 3.264 0 1.932 1.2 3.264 2.94 3.264zm-.06-5.604c1.092 0 1.572.792 1.596 1.68h-3.384c.192-1.068.876-1.68 1.788-1.68zm4.032 5.472h1.08v-3.744c0-1.044.792-1.644 1.572-1.644.936 0 1.308.66 1.308 1.536v3.852h1.08v-4.14c0-1.332-.756-2.256-2.088-2.256-.888 0-1.512.456-1.872.972v-.852h-1.08zm6.077-1.332c.48.972 1.62 1.464 2.76 1.464 1.344 0 2.436-.792 2.436-1.992 0-1.368-1.236-1.584-2.316-1.836-.876-.192-1.428-.3-1.428-.888 0-.564.48-.924 1.2-.924.792 0 1.38.396 1.704 1.02l.768-.612c-.372-.744-1.296-1.296-2.424-1.296-1.332 0-2.304.78-2.304 1.896 0 1.284 1.08 1.512 2.112 1.74 1.032.216 1.632.312 1.632.996s-.648.996-1.38.996c-.816 0-1.584-.444-1.92-1.176z" fill="#393939"/><rect height="22.7973" rx="1.4" stroke="#000" stroke-dasharray="2 2" stroke-width="1.2" width="22.7973" x="166.811" y="211.239"/><path d="m204.29 213.547v-1.524h-7.176v1.524h2.712v7.092h1.764v-7.092zm.757.036h1.716v-1.56h-1.716zm1.704.744h-1.68v6.312h1.68zm3.059 2.664c0-.828.564-1.248 1.116-1.248.696 0 .96.504.96 1.212v3.684h1.68v-3.648c0-.828.564-1.248 1.116-1.248.696 0 .96.504.96 1.212v3.684h1.68v-4.164c0-1.368-.84-2.268-2.136-2.268-.972 0-1.572.468-1.956.864-.348-.54-.936-.864-1.704-.864-.816 0-1.38.36-1.716.768v-.648h-1.68v6.312h1.68zm11.626 3.78c1.26 0 2.328-.648 2.784-1.8l-1.416-.504c-.192.612-.708.924-1.356.924-.828 0-1.416-.576-1.536-1.536h4.344v-.492c0-1.764-1.008-3.156-2.88-3.156-1.788 0-3.072 1.416-3.072 3.276 0 1.956 1.272 3.288 3.132 3.288zm-.072-5.22c.816 0 1.212.54 1.224 1.164h-2.616c.204-.768.72-1.164 1.392-1.164zm3.274 4.02c.576.78 1.776 1.2 2.916 1.2 1.512 0 2.736-.816 2.736-2.136 0-1.428-1.308-1.68-2.412-1.908-.78-.156-1.2-.228-1.2-.636 0-.348.348-.576.876-.576.66 0 1.272.3 1.692.84l.96-1.056c-.492-.636-1.488-1.092-2.604-1.092-1.512 0-2.58.84-2.58 2.052 0 1.356 1.128 1.62 2.148 1.824 1.008.192 1.476.252 1.476.732 0 .456-.492.648-1.056.648-.708 0-1.476-.372-1.908-.96zm6.792-.576c0 1.296.672 1.716 1.944 1.716.42 0 .78-.036 1.08-.096v-1.392c-.216.024-.336.036-.576.036-.492 0-.792-.072-.792-.612v-2.916h1.284v-1.404h-1.284v-1.8h-1.656v1.8h-.84v1.404h.84zm5.744 1.752c.828 0 1.464-.252 1.872-.696.276.528.924.744 1.992.588v-1.26c-.372.048-.516-.06-.516-.396v-2.58c0-1.464-.96-2.196-2.556-2.196-1.5 0-2.46.864-2.748 1.932l1.596.3c.144-.564.468-.84 1.092-.84.696 0 .972.336.972.876v.096l-1.572.3c-1.272.228-2.28.756-2.28 2.016 0 1.116.912 1.86 2.148 1.86zm1.704-2.352c0 .708-.66 1.08-1.368 1.08-.504 0-.828-.252-.828-.684 0-.504.408-.684.96-.792l1.236-.252zm4.787-1.404c0-.828.564-1.248 1.116-1.248.696 0 .96.504.96 1.212v3.684h1.68v-3.648c0-.828.564-1.248 1.116-1.248.696 0 .96.504.96 1.212v3.684h1.68v-4.164c0-1.368-.84-2.268-2.136-2.268-.972 0-1.572.468-1.956.864-.348-.54-.936-.864-1.704-.864-.816 0-1.38.36-1.716.768v-.648h-1.68v6.312h1.68zm12.311 3.78c1.74 0 2.748-1.488 2.748-3.288 0-1.788-1.008-3.276-2.748-3.276-.792 0-1.392.312-1.764.768v-.648h-1.68v8.448h1.68v-2.784c.372.468.972.78 1.764.78zm-1.8-3.456c0-1.08.6-1.668 1.404-1.668.948 0 1.452.756 1.452 1.836 0 1.092-.504 1.848-1.452 1.848-.804 0-1.404-.6-1.404-1.668zm-56.174 14.824c0 1.2.612 1.56 1.68 1.56.36 0 .672-.036.948-.096v-.924c-.252.06-.432.072-.684.072-.552 0-.876-.12-.876-.78v-3.684h1.428v-.924h-1.428v-1.836h-1.068v1.836h-.972v.924h.972zm9.275-1.632c0-1.944-1.2-3.264-2.916-3.264s-2.916 1.32-2.916 3.264 1.2 3.264 2.916 3.264 2.916-1.32 2.916-3.264zm-4.74 0c0-1.44.72-2.352 1.824-2.352s1.824.912 1.824 2.352c0 1.428-.72 2.34-1.824 2.34s-1.824-.912-1.824-2.34zm7.193-5.484h-1.08v8.616h1.08v-2.1l.912-.924 2.16 3.024h1.26l-2.652-3.804 2.448-2.472h-1.344l-2.784 2.928zm7.58 8.748c1.248 0 2.196-.684 2.58-1.8l-.948-.336c-.192.744-.792 1.2-1.632 1.2-1.092 0-1.848-.84-1.908-2.16h4.536v-.36c0-1.74-.924-3.072-2.676-3.072-1.704 0-2.892 1.392-2.892 3.264 0 1.932 1.2 3.264 2.94 3.264zm-.06-5.604c1.092 0 1.572.792 1.596 1.68h-3.384c.192-1.068.876-1.68 1.788-1.68zm4.033 5.472h1.08v-3.744c0-1.044.792-1.644 1.572-1.644.936 0 1.308.66 1.308 1.536v3.852h1.08v-4.14c0-1.332-.756-2.256-2.088-2.256-.888 0-1.512.456-1.872.972v-.852h-1.08zm6.077-1.332c.48.972 1.62 1.464 2.76 1.464 1.344 0 2.436-.792 2.436-1.992 0-1.368-1.236-1.584-2.316-1.836-.876-.192-1.428-.3-1.428-.888 0-.564.48-.924 1.2-.924.792 0 1.38.396 1.704 1.02l.768-.612c-.372-.744-1.296-1.296-2.424-1.296-1.332 0-2.304.78-2.304 1.896 0 1.284 1.08 1.512 2.112 1.74 1.032.216 1.632.312 1.632.996s-.648.996-1.38.996c-.816 0-1.584-.444-1.92-1.176z" fill="#393939"/><rect fill="#ededed" height="23.9973" rx="2" width="23.9973" y="210.639"/><path d="m30.391 219.067c.696 1.044 2.208 1.704 3.66 1.704 1.836 0 3.372-1.044 3.372-2.784 0-1.884-1.68-2.232-3.048-2.532-1.128-.252-1.752-.384-1.752-1.056 0-.624.576-1.032 1.416-1.032.96 0 1.632.48 2.136 1.188l1.164-1.14c-.6-.864-1.764-1.524-3.252-1.524-1.788 0-3.204 1.032-3.204 2.676 0 1.704 1.392 2.112 2.676 2.412 1.296.288 2.112.396 2.112 1.188 0 .732-.66 1.128-1.56 1.128-.948 0-1.872-.504-2.508-1.404zm11.3965 1.704c1.74 0 2.748-1.488 2.748-3.288 0-1.788-1.008-3.276-2.748-3.276-.792 0-1.392.312-1.764.768v-.648h-1.68v8.448h1.68v-2.784c.372.468.972.78 1.764.78zm-1.8-3.456c0-1.08.6-1.668 1.404-1.668.948 0 1.452.756 1.452 1.836 0 1.092-.504 1.848-1.452 1.848-.804 0-1.404-.6-1.404-1.668zm8.323 3.456c1.26 0 2.328-.648 2.784-1.8l-1.416-.504c-.192.612-.708.924-1.356.924-.828 0-1.416-.576-1.536-1.536h4.344v-.492c0-1.764-1.008-3.156-2.88-3.156-1.788 0-3.072 1.416-3.072 3.276 0 1.956 1.272 3.288 3.132 3.288zm-.072-5.22c.816 0 1.212.54 1.224 1.164h-2.616c.204-.768.72-1.164 1.392-1.164zm5.1939 1.932c0-1.176.588-1.872 1.476-1.872.696 0 1.116.48 1.272 1.128l1.428-.672c-.3-1.02-1.26-1.86-2.712-1.86-1.836 0-3.132 1.332-3.132 3.276 0 1.956 1.296 3.288 3.132 3.288 1.464 0 2.448-.864 2.736-1.896l-1.452-.648c-.156.648-.576 1.128-1.272 1.128-.888 0-1.476-.684-1.476-1.872zm4.9847-3.9h1.716v-1.56h-1.716zm1.704.744h-1.68v6.312h1.68zm3.0946 6.42c.828 0 1.464-.252 1.872-.696.276.528.924.744 1.992.588v-1.26c-.372.048-.516-.06-.516-.396v-2.58c0-1.464-.96-2.196-2.556-2.196-1.5 0-2.46.864-2.748 1.932l1.596.3c.144-.564.468-.84 1.092-.84.696 0 .972.336.972.876v.096l-1.572.3c-1.272.228-2.28.756-2.28 2.016 0 1.116.912 1.86 2.148 1.86zm1.704-2.352c0 .708-.66 1.08-1.368 1.08-.504 0-.828-.252-.828-.684 0-.504.408-.684.96-.792l1.236-.252zm4.7874-6.372h-1.68v8.616h1.68zm-38.1401 20.116c0 1.2.612 1.56 1.68 1.56.36 0 .672-.036.948-.096v-.924c-.252.06-.432.072-.684.072-.552 0-.876-.12-.876-.78v-3.684h1.428v-.924h-1.428v-1.836h-1.068v1.836h-.972v.924h.972zm9.275-1.632c0-1.944-1.2-3.264-2.916-3.264s-2.916 1.32-2.916 3.264 1.2 3.264 2.916 3.264 2.916-1.32 2.916-3.264zm-4.74 0c0-1.44.72-2.352 1.824-2.352s1.824.912 1.824 2.352c0 1.428-.72 2.34-1.824 2.34s-1.824-.912-1.824-2.34zm7.1934-5.484h-1.08v8.616h1.08v-2.1l.912-.924 2.16 3.024h1.26l-2.652-3.804 2.448-2.472h-1.344l-2.784 2.928zm7.5804 8.748c1.248 0 2.196-.684 2.58-1.8l-.948-.336c-.192.744-.792 1.2-1.632 1.2-1.092 0-1.848-.84-1.908-2.16h4.536v-.36c0-1.74-.924-3.072-2.676-3.072-1.704 0-2.892 1.392-2.892 3.264 0 1.932 1.2 3.264 2.94 3.264zm-.06-5.604c1.092 0 1.572.792 1.596 1.68h-3.384c.192-1.068.876-1.68 1.788-1.68zm4.0324 5.472h1.08v-3.744c0-1.044.792-1.644 1.572-1.644.936 0 1.308.66 1.308 1.536v3.852h1.08v-4.14c0-1.332-.756-2.256-2.088-2.256-.888 0-1.512.456-1.872.972v-.852h-1.08z" fill="#393939"/><path d="m645.625 82.6104c4.408 0 8.24 3.0222 9.268 7.3083l10.409 43.4003c1.078 4.497 5.099 7.668 9.724 7.668h2.763" stroke="#000" stroke-width="1.2"/><path d="m1268.11 113.738-6-3.464v6.928zm-33.58-27.2327h1.62v-1.2h-1.62zm9.85 4.8456 9.7 17.5221 1.05-.581-9.7-17.5225zm9.7 17.5221c1.87 3.372 5.42 5.465 9.27 5.465v-1.2c-3.41 0-6.56-1.856-8.22-4.846zm-17.93-22.3677c3.42 0 6.57 1.8555 8.23 4.8456l1.05-.5814c-1.87-3.3719-5.42-5.4642-9.28-5.4642z" fill="#000"/><path d="m383.471 84.2285-6 3.4641v-6.9282zm-9.846 5.4456-9.705 17.5229-1.05-.582 9.705-17.5223zm-18.978 22.9869h-4.755v-1.2h4.755zm9.273-5.464c-1.868 3.372-5.418 5.464-9.273 5.464v-1.2c3.418 0 6.567-1.856 8.223-4.846zm17.928-22.3685c-3.418 0-6.567 1.8555-8.223 4.8456l-1.05-.5814c1.868-3.3718 5.418-5.4642 9.273-5.4642z" fill="#000"/><path d="m383.471 139.893-6-3.465v6.929zm-9.846-5.446-9.705-17.523-1.05.582 9.705 17.522zm-18.978-22.987h-4.755v1.2h4.755zm9.273 5.464c-1.868-3.371-5.418-5.464-9.273-5.464v1.2c3.418 0 6.567 1.856 8.223 4.846zm17.928 22.369c-3.418 0-6.567-1.856-8.223-4.846l-1.05.581c1.868 3.372 5.418 5.465 9.273 5.465z" fill="#000"/><path d="m1268.11 113.737-6 3.464v-6.928zm-33.58 27.232h1.62v1.2h-1.62zm9.85-4.845 9.7-17.523 1.05.582-9.7 17.522zm9.7-17.523c1.87-3.372 5.42-5.464 9.27-5.464v1.2c-3.41 0-6.56 1.855-8.22 4.846zm-17.93 22.368c3.42 0 6.57-1.855 8.23-4.845l1.05.581c-1.87 3.372-5.42 5.464-9.28 5.464z" fill="#000"/><path d="m536.904 143.103-6-3.465v6.929zm-12.487-7.668-.584.14zm-10.992-43.2611 10.408 43.4011 1.167-.28-10.408-43.4009zm10.408 43.4011c1.144 4.766 5.406 8.128 10.308 8.128v-1.2c-4.347 0-8.127-2.981-9.141-7.208zm-19.093-50.2494c4.13 0 7.722 2.832 8.685 6.8483l1.167-.2798c-1.093-4.556-5.167-7.7685-9.852-7.7685z" fill="#000"/><path d="m645.625 140.987c4.408 0 8.24-3.022 9.268-7.308l10.409-43.4007c1.078-4.497 5.099-7.668 9.724-7.668h2.763" stroke="#000" stroke-width="1.2"/></g></svg>